<svg xmlns="http://www.w3.org/2000/svg" width="960" height="420" viewBox="0 0 960 420"><rect width="100%" height="100%" fill="#ffffff" /><text x="70" y="28" font-family="Arial, sans-serif" font-size="20" font-weight="600" fill="#111827">Kalender Performance Trend (Last 50 Runs)</text><line x1="70" y1="340.0" x2="930" y2="340.0" stroke="#e5e7eb" stroke-width="1" /><text x="60" y="344.0" text-anchor="end" font-family="Arial, sans-serif" font-size="11" fill="#6b7280">3.21ms</text><line x1="70" y1="282.0" x2="930" y2="282.0" stroke="#e5e7eb" stroke-width="1" /><text x="60" y="286.0" text-anchor="end" font-family="Arial, sans-serif" font-size="11" fill="#6b7280">4.15ms</text><line x1="70" y1="224.0" x2="930" y2="224.0" stroke="#e5e7eb" stroke-width="1" /><text x="60" y="228.0" text-anchor="end" font-family="Arial, sans-serif" font-size="11" fill="#6b7280">5.09ms</text><line x1="70" y1="166.0" x2="930" y2="166.0" stroke="#e5e7eb" stroke-width="1" /><text x="60" y="170.0" text-anchor="end" font-family="Arial, sans-serif" font-size="11" fill="#6b7280">6.03ms</text><line x1="70" y1="108.0" x2="930" y2="108.0" stroke="#e5e7eb" stroke-width="1" /><text x="60" y="112.0" text-anchor="end" font-family="Arial, sans-serif" font-size="11" fill="#6b7280">6.97ms</text><line x1="70" y1="50.0" x2="930" y2="50.0" stroke="#e5e7eb" stroke-width="1" /><text x="60" y="54.0" text-anchor="end" font-family="Arial, sans-serif" font-size="11" fill="#6b7280">7.91ms</text><line x1="70" y1="340" x2="930" y2="340" stroke="#9ca3af" stroke-width="1.5" /><line x1="70" y1="50" x2="70" y2="340" stroke="#9ca3af" stroke-width="1.5" /><polyline points="70.0,264.9 96.1,271.0 122.1,276.6 148.2,252.0 174.2,272.9 200.3,264.6 226.4,272.8 252.4,264.8 278.5,255.9 304.5,268.4 330.6,273.1 356.7,250.8 382.7,251.1 408.8,272.6 434.8,246.1 460.9,241.2 487.0,250.1 513.0,232.4 539.1,259.1 565.2,272.8 591.2,255.0 617.3,252.7 643.3,264.8 669.4,266.0 695.5,274.8 721.5,278.3 747.6,257.3 773.6,241.8 799.7,242.5 825.8,252.9 851.8,268.8 877.9,303.5 903.9,277.7 930.0,311.9" fill="none" stroke="#2563eb" stroke-width="2.5" stroke-linecap="round" stroke-linejoin="round" /><circle cx="70.0" cy="264.9" r="2.8" fill="#2563eb" /><circle cx="96.1" cy="271.0" r="2.8" fill="#2563eb" /><circle cx="122.1" cy="276.6" r="2.8" fill="#2563eb" /><circle cx="148.2" cy="252.0" r="2.8" fill="#2563eb" /><circle cx="174.2" cy="272.9" r="2.8" fill="#2563eb" /><circle cx="200.3" cy="264.6" r="2.8" fill="#2563eb" /><circle cx="226.4" cy="272.8" r="2.8" fill="#2563eb" /><circle cx="252.4" cy="264.8" r="2.8" fill="#2563eb" /><circle cx="278.5" cy="255.9" r="2.8" fill="#2563eb" /><circle cx="304.5" cy="268.4" r="2.8" fill="#2563eb" /><circle cx="330.6" cy="273.1" r="2.8" fill="#2563eb" /><circle cx="356.7" cy="250.8" r="2.8" fill="#2563eb" /><circle cx="382.7" cy="251.1" r="2.8" fill="#2563eb" /><circle cx="408.8" cy="272.6" r="2.8" fill="#2563eb" /><circle cx="434.8" cy="246.1" r="2.8" fill="#2563eb" /><circle cx="460.9" cy="241.2" r="2.8" fill="#2563eb" /><circle cx="487.0" cy="250.1" r="2.8" fill="#2563eb" /><circle cx="513.0" cy="232.4" r="2.8" fill="#2563eb" /><circle cx="539.1" cy="259.1" r="2.8" fill="#2563eb" /><circle cx="565.2" cy="272.8" r="2.8" fill="#2563eb" /><circle cx="591.2" cy="255.0" r="2.8" fill="#2563eb" /><circle cx="617.3" cy="252.7" r="2.8" fill="#2563eb" /><circle cx="643.3" cy="264.8" r="2.8" fill="#2563eb" /><circle cx="669.4" cy="266.0" r="2.8" fill="#2563eb" /><circle cx="695.5" cy="274.8" r="2.8" fill="#2563eb" /><circle cx="721.5" cy="278.3" r="2.8" fill="#2563eb" /><circle cx="747.6" cy="257.3" r="2.8" fill="#2563eb" /><circle cx="773.6" cy="241.8" r="2.8" fill="#2563eb" /><circle cx="799.7" cy="242.5" r="2.8" fill="#2563eb" /><circle cx="825.8" cy="252.9" r="2.8" fill="#2563eb" /><circle cx="851.8" cy="268.8" r="2.8" fill="#2563eb" /><circle cx="877.9" cy="303.5" r="2.8" fill="#2563eb" /><circle cx="903.9" cy="277.7" r="2.8" fill="#2563eb" /><circle cx="930.0" cy="311.9" r="2.8" fill="#2563eb" /><polyline points="70.0,116.9 96.1,116.2 122.1,99.5 148.2,91.9 174.2,117.0 200.3,109.3 226.4,114.6 252.4,102.0 278.5,95.7 304.5,115.0 330.6,123.8 356.7,109.6 382.7,99.3 408.8,78.1 434.8,98.1 460.9,85.7 487.0,108.2 513.0,85.4 539.1,114.2 565.2,108.0 591.2,122.8 617.3,103.8 643.3,124.0 669.4,113.2 695.5,98.2 721.5,88.2 747.6,116.8 773.6,103.2 799.7,88.6 825.8,103.1 851.8,116.6 877.9,212.8 903.9,99.3 930.0,216.1" fill="none" stroke="#f59e0b" stroke-width="2.5" stroke-linecap="round" stroke-linejoin="round" /><circle cx="70.0" cy="116.9" r="2.8" fill="#f59e0b" /><circle cx="96.1" cy="116.2" r="2.8" fill="#f59e0b" /><circle cx="122.1" cy="99.5" r="2.8" fill="#f59e0b" /><circle cx="148.2" cy="91.9" r="2.8" fill="#f59e0b" /><circle cx="174.2" cy="117.0" r="2.8" fill="#f59e0b" /><circle cx="200.3" cy="109.3" r="2.8" fill="#f59e0b" /><circle cx="226.4" cy="114.6" r="2.8" fill="#f59e0b" /><circle cx="252.4" cy="102.0" r="2.8" fill="#f59e0b" /><circle cx="278.5" cy="95.7" r="2.8" fill="#f59e0b" /><circle cx="304.5" cy="115.0" r="2.8" fill="#f59e0b" /><circle cx="330.6" cy="123.8" r="2.8" fill="#f59e0b" /><circle cx="356.7" cy="109.6" r="2.8" fill="#f59e0b" /><circle cx="382.7" cy="99.3" r="2.8" fill="#f59e0b" /><circle cx="408.8" cy="78.1" r="2.8" fill="#f59e0b" /><circle cx="434.8" cy="98.1" r="2.8" fill="#f59e0b" /><circle cx="460.9" cy="85.7" r="2.8" fill="#f59e0b" /><circle cx="487.0" cy="108.2" r="2.8" fill="#f59e0b" /><circle cx="513.0" cy="85.4" r="2.8" fill="#f59e0b" /><circle cx="539.1" cy="114.2" r="2.8" fill="#f59e0b" /><circle cx="565.2" cy="108.0" r="2.8" fill="#f59e0b" /><circle cx="591.2" cy="122.8" r="2.8" fill="#f59e0b" /><circle cx="617.3" cy="103.8" r="2.8" fill="#f59e0b" /><circle cx="643.3" cy="124.0" r="2.8" fill="#f59e0b" /><circle cx="669.4" cy="113.2" r="2.8" fill="#f59e0b" /><circle cx="695.5" cy="98.2" r="2.8" fill="#f59e0b" /><circle cx="721.5" cy="88.2" r="2.8" fill="#f59e0b" /><circle cx="747.6" cy="116.8" r="2.8" fill="#f59e0b" /><circle cx="773.6" cy="103.2" r="2.8" fill="#f59e0b" /><circle cx="799.7" cy="88.6" r="2.8" fill="#f59e0b" /><circle cx="825.8" cy="103.1" r="2.8" fill="#f59e0b" /><circle cx="851.8" cy="116.6" r="2.8" fill="#f59e0b" /><circle cx="877.9" cy="212.8" r="2.8" fill="#f59e0b" /><circle cx="903.9" cy="99.3" r="2.8" fill="#f59e0b" /><circle cx="930.0" cy="216.1" r="2.8" fill="#f59e0b" /><text x="70.0" y="360" text-anchor="middle" font-family="Arial, sans-serif" font-size="10" fill="#6b7280">#226 (2c6afc3)</text><text x="200.3" y="360" text-anchor="middle" font-family="Arial, sans-serif" font-size="10" fill="#6b7280">#231 (ee021f0)</text><text x="330.6" y="360" text-anchor="middle" font-family="Arial, sans-serif" font-size="10" fill="#6b7280">#236 (a0f1140)</text><text x="460.9" y="360" text-anchor="middle" font-family="Arial, sans-serif" font-size="10" fill="#6b7280">#241 (ad053ef)</text><text x="591.2" y="360" text-anchor="middle" font-family="Arial, sans-serif" font-size="10" fill="#6b7280">#246 (5ef06dc)</text><text x="721.5" y="360" text-anchor="middle" font-family="Arial, sans-serif" font-size="10" fill="#6b7280">#252 (6af7ca9)</text><text x="851.8" y="360" text-anchor="middle" font-family="Arial, sans-serif" font-size="10" fill="#6b7280">#257 (10f7922)</text><text x="930.0" y="360" text-anchor="middle" font-family="Arial, sans-serif" font-size="10" fill="#6b7280">#260 (fa9bd01)</text><line x1="70" y1="388" x2="94" y2="388" stroke="#2563eb" stroke-width="3" /><text x="102" y="392" font-family="Arial, sans-serif" font-size="12" fill="#1f2937">Avg build time (ms)</text><line x1="280" y1="388" x2="304" y2="388" stroke="#f59e0b" stroke-width="3" /><text x="312" y="392" font-family="Arial, sans-serif" font-size="12" fill="#1f2937">Avg rasterizer time (ms)</text></svg>