<svg xmlns="http://www.w3.org/2000/svg" width="960" height="420" viewBox="0 0 960 420"><rect width="100%" height="100%" fill="#ffffff" /><text x="70" y="28" font-family="Arial, sans-serif" font-size="20" font-weight="600" fill="#111827">Kalender Performance Trend (Last 50 Runs)</text><line x1="70" y1="340.0" x2="930" y2="340.0" stroke="#e5e7eb" stroke-width="1" /><text x="60" y="344.0" text-anchor="end" font-family="Arial, sans-serif" font-size="11" fill="#6b7280">3.83ms</text><line x1="70" y1="282.0" x2="930" y2="282.0" stroke="#e5e7eb" stroke-width="1" /><text x="60" y="286.0" text-anchor="end" font-family="Arial, sans-serif" font-size="11" fill="#6b7280">4.63ms</text><line x1="70" y1="224.0" x2="930" y2="224.0" stroke="#e5e7eb" stroke-width="1" /><text x="60" y="228.0" text-anchor="end" font-family="Arial, sans-serif" font-size="11" fill="#6b7280">5.43ms</text><line x1="70" y1="166.0" x2="930" y2="166.0" stroke="#e5e7eb" stroke-width="1" /><text x="60" y="170.0" text-anchor="end" font-family="Arial, sans-serif" font-size="11" fill="#6b7280">6.24ms</text><line x1="70" y1="108.0" x2="930" y2="108.0" stroke="#e5e7eb" stroke-width="1" /><text x="60" y="112.0" text-anchor="end" font-family="Arial, sans-serif" font-size="11" fill="#6b7280">7.04ms</text><line x1="70" y1="50.0" x2="930" y2="50.0" stroke="#e5e7eb" stroke-width="1" /><text x="60" y="54.0" text-anchor="end" font-family="Arial, sans-serif" font-size="11" fill="#6b7280">7.85ms</text><line x1="70" y1="340" x2="930" y2="340" stroke="#9ca3af" stroke-width="1.5" /><line x1="70" y1="50" x2="70" y2="340" stroke="#9ca3af" stroke-width="1.5" /><polyline points="70.0,296.3 103.1,303.4 136.2,310.0 169.2,281.3 202.3,305.7 235.4,296.0 268.5,305.6 301.5,296.2 334.6,285.8 367.7,300.4 400.8,305.9 433.8,279.8 466.9,280.1 500.0,305.3 533.1,274.4 566.2,268.6 599.2,279.0 632.3,258.4 665.4,289.5 698.5,305.5 731.5,284.7 764.6,282.0 797.7,296.1 830.8,297.6 863.8,307.9 896.9,311.9 930.0,287.4" fill="none" stroke="#2563eb" stroke-width="2.5" stroke-linecap="round" stroke-linejoin="round" /><circle cx="70.0" cy="296.3" r="2.8" fill="#2563eb" /><circle cx="103.1" cy="303.4" r="2.8" fill="#2563eb" /><circle cx="136.2" cy="310.0" r="2.8" fill="#2563eb" /><circle cx="169.2" cy="281.3" r="2.8" fill="#2563eb" /><circle cx="202.3" cy="305.7" r="2.8" fill="#2563eb" /><circle cx="235.4" cy="296.0" r="2.8" fill="#2563eb" /><circle cx="268.5" cy="305.6" r="2.8" fill="#2563eb" /><circle cx="301.5" cy="296.2" r="2.8" fill="#2563eb" /><circle cx="334.6" cy="285.8" r="2.8" fill="#2563eb" /><circle cx="367.7" cy="300.4" r="2.8" fill="#2563eb" /><circle cx="400.8" cy="305.9" r="2.8" fill="#2563eb" /><circle cx="433.8" cy="279.8" r="2.8" fill="#2563eb" /><circle cx="466.9" cy="280.1" r="2.8" fill="#2563eb" /><circle cx="500.0" cy="305.3" r="2.8" fill="#2563eb" /><circle cx="533.1" cy="274.4" r="2.8" fill="#2563eb" /><circle cx="566.2" cy="268.6" r="2.8" fill="#2563eb" /><circle cx="599.2" cy="279.0" r="2.8" fill="#2563eb" /><circle cx="632.3" cy="258.4" r="2.8" fill="#2563eb" /><circle cx="665.4" cy="289.5" r="2.8" fill="#2563eb" /><circle cx="698.5" cy="305.5" r="2.8" fill="#2563eb" /><circle cx="731.5" cy="284.7" r="2.8" fill="#2563eb" /><circle cx="764.6" cy="282.0" r="2.8" fill="#2563eb" /><circle cx="797.7" cy="296.1" r="2.8" fill="#2563eb" /><circle cx="830.8" cy="297.6" r="2.8" fill="#2563eb" /><circle cx="863.8" cy="307.9" r="2.8" fill="#2563eb" /><circle cx="896.9" cy="311.9" r="2.8" fill="#2563eb" /><circle cx="930.0" cy="287.4" r="2.8" fill="#2563eb" /><polyline points="70.0,123.4 103.1,122.6 136.2,103.1 169.2,94.2 202.3,123.6 235.4,114.5 268.5,120.7 301.5,106.0 334.6,98.7 367.7,121.2 400.8,131.4 433.8,114.9 466.9,102.9 500.0,78.1 533.1,101.5 566.2,87.0 599.2,113.2 632.3,86.7 665.4,120.3 698.5,113.0 731.5,130.3 764.6,108.1 797.7,131.8 830.8,119.1 863.8,101.5 896.9,89.9 930.0,123.4" fill="none" stroke="#f59e0b" stroke-width="2.5" stroke-linecap="round" stroke-linejoin="round" /><circle cx="70.0" cy="123.4" r="2.8" fill="#f59e0b" /><circle cx="103.1" cy="122.6" r="2.8" fill="#f59e0b" /><circle cx="136.2" cy="103.1" r="2.8" fill="#f59e0b" /><circle cx="169.2" cy="94.2" r="2.8" fill="#f59e0b" /><circle cx="202.3" cy="123.6" r="2.8" fill="#f59e0b" /><circle cx="235.4" cy="114.5" r="2.8" fill="#f59e0b" /><circle cx="268.5" cy="120.7" r="2.8" fill="#f59e0b" /><circle cx="301.5" cy="106.0" r="2.8" fill="#f59e0b" /><circle cx="334.6" cy="98.7" r="2.8" fill="#f59e0b" /><circle cx="367.7" cy="121.2" r="2.8" fill="#f59e0b" /><circle cx="400.8" cy="131.4" r="2.8" fill="#f59e0b" /><circle cx="433.8" cy="114.9" r="2.8" fill="#f59e0b" /><circle cx="466.9" cy="102.9" r="2.8" fill="#f59e0b" /><circle cx="500.0" cy="78.1" r="2.8" fill="#f59e0b" /><circle cx="533.1" cy="101.5" r="2.8" fill="#f59e0b" /><circle cx="566.2" cy="87.0" r="2.8" fill="#f59e0b" /><circle cx="599.2" cy="113.2" r="2.8" fill="#f59e0b" /><circle cx="632.3" cy="86.7" r="2.8" fill="#f59e0b" /><circle cx="665.4" cy="120.3" r="2.8" fill="#f59e0b" /><circle cx="698.5" cy="113.0" r="2.8" fill="#f59e0b" /><circle cx="731.5" cy="130.3" r="2.8" fill="#f59e0b" /><circle cx="764.6" cy="108.1" r="2.8" fill="#f59e0b" /><circle cx="797.7" cy="131.8" r="2.8" fill="#f59e0b" /><circle cx="830.8" cy="119.1" r="2.8" fill="#f59e0b" /><circle cx="863.8" cy="101.5" r="2.8" fill="#f59e0b" /><circle cx="896.9" cy="89.9" r="2.8" fill="#f59e0b" /><circle cx="930.0" cy="123.4" r="2.8" fill="#f59e0b" /><text x="70.0" y="360" text-anchor="middle" font-family="Arial, sans-serif" font-size="10" fill="#6b7280">#226 (2c6afc3)</text><text x="202.3" y="360" text-anchor="middle" font-family="Arial, sans-serif" font-size="10" fill="#6b7280">#230 (ef578cb)</text><text x="334.6" y="360" text-anchor="middle" font-family="Arial, sans-serif" font-size="10" fill="#6b7280">#234 (c5cb6ad)</text><text x="466.9" y="360" text-anchor="middle" font-family="Arial, sans-serif" font-size="10" fill="#6b7280">#238 (6e60d14)</text><text x="599.2" y="360" text-anchor="middle" font-family="Arial, sans-serif" font-size="10" fill="#6b7280">#242 (aa0ffac)</text><text x="731.5" y="360" text-anchor="middle" font-family="Arial, sans-serif" font-size="10" fill="#6b7280">#246 (5ef06dc)</text><text x="863.8" y="360" text-anchor="middle" font-family="Arial, sans-serif" font-size="10" fill="#6b7280">#251 (43970d4)</text><text x="930.0" y="360" text-anchor="middle" font-family="Arial, sans-serif" font-size="10" fill="#6b7280">#253 (4d8a976)</text><line x1="70" y1="388" x2="94" y2="388" stroke="#2563eb" stroke-width="3" /><text x="102" y="392" font-family="Arial, sans-serif" font-size="12" fill="#1f2937">Avg build time (ms)</text><line x1="280" y1="388" x2="304" y2="388" stroke="#f59e0b" stroke-width="3" /><text x="312" y="392" font-family="Arial, sans-serif" font-size="12" fill="#1f2937">Avg rasterizer time (ms)</text></svg>