<svg xmlns="http://www.w3.org/2000/svg" width="960" height="420" viewBox="0 0 960 420"><rect width="100%" height="100%" fill="#ffffff" /><text x="70" y="28" font-family="Arial, sans-serif" font-size="20" font-weight="600" fill="#111827">Kalender Performance Trend (Last 50 Runs)</text><line x1="70" y1="340.0" x2="930" y2="340.0" stroke="#e5e7eb" stroke-width="1" /><text x="60" y="344.0" text-anchor="end" font-family="Arial, sans-serif" font-size="11" fill="#6b7280">3.21ms</text><line x1="70" y1="282.0" x2="930" y2="282.0" stroke="#e5e7eb" stroke-width="1" /><text x="60" y="286.0" text-anchor="end" font-family="Arial, sans-serif" font-size="11" fill="#6b7280">4.15ms</text><line x1="70" y1="224.0" x2="930" y2="224.0" stroke="#e5e7eb" stroke-width="1" /><text x="60" y="228.0" text-anchor="end" font-family="Arial, sans-serif" font-size="11" fill="#6b7280">5.09ms</text><line x1="70" y1="166.0" x2="930" y2="166.0" stroke="#e5e7eb" stroke-width="1" /><text x="60" y="170.0" text-anchor="end" font-family="Arial, sans-serif" font-size="11" fill="#6b7280">6.03ms</text><line x1="70" y1="108.0" x2="930" y2="108.0" stroke="#e5e7eb" stroke-width="1" /><text x="60" y="112.0" text-anchor="end" font-family="Arial, sans-serif" font-size="11" fill="#6b7280">6.97ms</text><line x1="70" y1="50.0" x2="930" y2="50.0" stroke="#e5e7eb" stroke-width="1" /><text x="60" y="54.0" text-anchor="end" font-family="Arial, sans-serif" font-size="11" fill="#6b7280">7.91ms</text><line x1="70" y1="340" x2="930" y2="340" stroke="#9ca3af" stroke-width="1.5" /><line x1="70" y1="50" x2="70" y2="340" stroke="#9ca3af" stroke-width="1.5" /><polyline points="70.0,264.9 95.3,271.0 120.6,276.6 145.9,252.0 171.2,272.9 196.5,264.6 221.8,272.8 247.1,264.8 272.4,255.9 297.6,268.4 322.9,273.1 348.2,250.8 373.5,251.1 398.8,272.6 424.1,246.1 449.4,241.2 474.7,250.1 500.0,232.4 525.3,259.1 550.6,272.8 575.9,255.0 601.2,252.7 626.5,264.8 651.8,266.0 677.1,274.8 702.4,278.3 727.6,257.3 752.9,241.8 778.2,242.5 803.5,252.9 828.8,268.8 854.1,303.5 879.4,277.7 904.7,311.9 930.0,240.8" fill="none" stroke="#2563eb" stroke-width="2.5" stroke-linecap="round" stroke-linejoin="round" /><circle cx="70.0" cy="264.9" r="2.8" fill="#2563eb" /><circle cx="95.3" cy="271.0" r="2.8" fill="#2563eb" /><circle cx="120.6" cy="276.6" r="2.8" fill="#2563eb" /><circle cx="145.9" cy="252.0" r="2.8" fill="#2563eb" /><circle cx="171.2" cy="272.9" r="2.8" fill="#2563eb" /><circle cx="196.5" cy="264.6" r="2.8" fill="#2563eb" /><circle cx="221.8" cy="272.8" r="2.8" fill="#2563eb" /><circle cx="247.1" cy="264.8" r="2.8" fill="#2563eb" /><circle cx="272.4" cy="255.9" r="2.8" fill="#2563eb" /><circle cx="297.6" cy="268.4" r="2.8" fill="#2563eb" /><circle cx="322.9" cy="273.1" r="2.8" fill="#2563eb" /><circle cx="348.2" cy="250.8" r="2.8" fill="#2563eb" /><circle cx="373.5" cy="251.1" r="2.8" fill="#2563eb" /><circle cx="398.8" cy="272.6" r="2.8" fill="#2563eb" /><circle cx="424.1" cy="246.1" r="2.8" fill="#2563eb" /><circle cx="449.4" cy="241.2" r="2.8" fill="#2563eb" /><circle cx="474.7" cy="250.1" r="2.8" fill="#2563eb" /><circle cx="500.0" cy="232.4" r="2.8" fill="#2563eb" /><circle cx="525.3" cy="259.1" r="2.8" fill="#2563eb" /><circle cx="550.6" cy="272.8" r="2.8" fill="#2563eb" /><circle cx="575.9" cy="255.0" r="2.8" fill="#2563eb" /><circle cx="601.2" cy="252.7" r="2.8" fill="#2563eb" /><circle cx="626.5" cy="264.8" r="2.8" fill="#2563eb" /><circle cx="651.8" cy="266.0" r="2.8" fill="#2563eb" /><circle cx="677.1" cy="274.8" r="2.8" fill="#2563eb" /><circle cx="702.4" cy="278.3" r="2.8" fill="#2563eb" /><circle cx="727.6" cy="257.3" r="2.8" fill="#2563eb" /><circle cx="752.9" cy="241.8" r="2.8" fill="#2563eb" /><circle cx="778.2" cy="242.5" r="2.8" fill="#2563eb" /><circle cx="803.5" cy="252.9" r="2.8" fill="#2563eb" /><circle cx="828.8" cy="268.8" r="2.8" fill="#2563eb" /><circle cx="854.1" cy="303.5" r="2.8" fill="#2563eb" /><circle cx="879.4" cy="277.7" r="2.8" fill="#2563eb" /><circle cx="904.7" cy="311.9" r="2.8" fill="#2563eb" /><circle cx="930.0" cy="240.8" r="2.8" fill="#2563eb" /><polyline points="70.0,116.9 95.3,116.2 120.6,99.5 145.9,91.9 171.2,117.0 196.5,109.3 221.8,114.6 247.1,102.0 272.4,95.7 297.6,115.0 322.9,123.8 348.2,109.6 373.5,99.3 398.8,78.1 424.1,98.1 449.4,85.7 474.7,108.2 500.0,85.4 525.3,114.2 550.6,108.0 575.9,122.8 601.2,103.8 626.5,124.0 651.8,113.2 677.1,98.2 702.4,88.2 727.6,116.8 752.9,103.2 778.2,88.6 803.5,103.1 828.8,116.6 854.1,212.8 879.4,99.3 904.7,216.1 930.0,106.6" fill="none" stroke="#f59e0b" stroke-width="2.5" stroke-linecap="round" stroke-linejoin="round" /><circle cx="70.0" cy="116.9" r="2.8" fill="#f59e0b" /><circle cx="95.3" cy="116.2" r="2.8" fill="#f59e0b" /><circle cx="120.6" cy="99.5" r="2.8" fill="#f59e0b" /><circle cx="145.9" cy="91.9" r="2.8" fill="#f59e0b" /><circle cx="171.2" cy="117.0" r="2.8" fill="#f59e0b" /><circle cx="196.5" cy="109.3" r="2.8" fill="#f59e0b" /><circle cx="221.8" cy="114.6" r="2.8" fill="#f59e0b" /><circle cx="247.1" cy="102.0" r="2.8" fill="#f59e0b" /><circle cx="272.4" cy="95.7" r="2.8" fill="#f59e0b" /><circle cx="297.6" cy="115.0" r="2.8" fill="#f59e0b" /><circle cx="322.9" cy="123.8" r="2.8" fill="#f59e0b" /><circle cx="348.2" cy="109.6" r="2.8" fill="#f59e0b" /><circle cx="373.5" cy="99.3" r="2.8" fill="#f59e0b" /><circle cx="398.8" cy="78.1" r="2.8" fill="#f59e0b" /><circle cx="424.1" cy="98.1" r="2.8" fill="#f59e0b" /><circle cx="449.4" cy="85.7" r="2.8" fill="#f59e0b" /><circle cx="474.7" cy="108.2" r="2.8" fill="#f59e0b" /><circle cx="500.0" cy="85.4" r="2.8" fill="#f59e0b" /><circle cx="525.3" cy="114.2" r="2.8" fill="#f59e0b" /><circle cx="550.6" cy="108.0" r="2.8" fill="#f59e0b" /><circle cx="575.9" cy="122.8" r="2.8" fill="#f59e0b" /><circle cx="601.2" cy="103.8" r="2.8" fill="#f59e0b" /><circle cx="626.5" cy="124.0" r="2.8" fill="#f59e0b" /><circle cx="651.8" cy="113.2" r="2.8" fill="#f59e0b" /><circle cx="677.1" cy="98.2" r="2.8" fill="#f59e0b" /><circle cx="702.4" cy="88.2" r="2.8" fill="#f59e0b" /><circle cx="727.6" cy="116.8" r="2.8" fill="#f59e0b" /><circle cx="752.9" cy="103.2" r="2.8" fill="#f59e0b" /><circle cx="778.2" cy="88.6" r="2.8" fill="#f59e0b" /><circle cx="803.5" cy="103.1" r="2.8" fill="#f59e0b" /><circle cx="828.8" cy="116.6" r="2.8" fill="#f59e0b" /><circle cx="854.1" cy="212.8" r="2.8" fill="#f59e0b" /><circle cx="879.4" cy="99.3" r="2.8" fill="#f59e0b" /><circle cx="904.7" cy="216.1" r="2.8" fill="#f59e0b" /><circle cx="930.0" cy="106.6" r="2.8" fill="#f59e0b" /><text x="70.0" y="360" text-anchor="middle" font-family="Arial, sans-serif" font-size="10" fill="#6b7280">#226 (2c6afc3)</text><text x="196.5" y="360" text-anchor="middle" font-family="Arial, sans-serif" font-size="10" fill="#6b7280">#231 (ee021f0)</text><text x="322.9" y="360" text-anchor="middle" font-family="Arial, sans-serif" font-size="10" fill="#6b7280">#236 (a0f1140)</text><text x="449.4" y="360" text-anchor="middle" font-family="Arial, sans-serif" font-size="10" fill="#6b7280">#241 (ad053ef)</text><text x="575.9" y="360" text-anchor="middle" font-family="Arial, sans-serif" font-size="10" fill="#6b7280">#246 (5ef06dc)</text><text x="702.4" y="360" text-anchor="middle" font-family="Arial, sans-serif" font-size="10" fill="#6b7280">#252 (6af7ca9)</text><text x="828.8" y="360" text-anchor="middle" font-family="Arial, sans-serif" font-size="10" fill="#6b7280">#257 (10f7922)</text><text x="930.0" y="360" text-anchor="middle" font-family="Arial, sans-serif" font-size="10" fill="#6b7280">#261 (3fc9135)</text><line x1="70" y1="388" x2="94" y2="388" stroke="#2563eb" stroke-width="3" /><text x="102" y="392" font-family="Arial, sans-serif" font-size="12" fill="#1f2937">Avg build time (ms)</text><line x1="280" y1="388" x2="304" y2="388" stroke="#f59e0b" stroke-width="3" /><text x="312" y="392" font-family="Arial, sans-serif" font-size="12" fill="#1f2937">Avg rasterizer time (ms)</text></svg>