<svg xmlns="http://www.w3.org/2000/svg" width="960" height="420" viewBox="0 0 960 420"><rect width="100%" height="100%" fill="#ffffff" /><text x="70" y="28" font-family="Arial, sans-serif" font-size="20" font-weight="600" fill="#111827">Kalender Performance Trend (Last 50 Runs)</text><line x1="70" y1="340.0" x2="930" y2="340.0" stroke="#e5e7eb" stroke-width="1" /><text x="60" y="344.0" text-anchor="end" font-family="Arial, sans-serif" font-size="11" fill="#6b7280">3.86ms</text><line x1="70" y1="282.0" x2="930" y2="282.0" stroke="#e5e7eb" stroke-width="1" /><text x="60" y="286.0" text-anchor="end" font-family="Arial, sans-serif" font-size="11" fill="#6b7280">4.65ms</text><line x1="70" y1="224.0" x2="930" y2="224.0" stroke="#e5e7eb" stroke-width="1" /><text x="60" y="228.0" text-anchor="end" font-family="Arial, sans-serif" font-size="11" fill="#6b7280">5.45ms</text><line x1="70" y1="166.0" x2="930" y2="166.0" stroke="#e5e7eb" stroke-width="1" /><text x="60" y="170.0" text-anchor="end" font-family="Arial, sans-serif" font-size="11" fill="#6b7280">6.25ms</text><line x1="70" y1="108.0" x2="930" y2="108.0" stroke="#e5e7eb" stroke-width="1" /><text x="60" y="112.0" text-anchor="end" font-family="Arial, sans-serif" font-size="11" fill="#6b7280">7.05ms</text><line x1="70" y1="50.0" x2="930" y2="50.0" stroke="#e5e7eb" stroke-width="1" /><text x="60" y="54.0" text-anchor="end" font-family="Arial, sans-serif" font-size="11" fill="#6b7280">7.84ms</text><line x1="70" y1="340" x2="930" y2="340" stroke="#9ca3af" stroke-width="1.5" /><line x1="70" y1="50" x2="70" y2="340" stroke="#9ca3af" stroke-width="1.5" /><polyline points="70.0,298.2 107.4,305.3 144.8,311.9 182.2,283.0 219.6,307.6 257.0,297.9 294.3,307.5 331.7,298.0 369.1,287.5 406.5,302.3 443.9,307.8 481.3,281.5 518.7,281.9 556.1,307.2 593.5,276.0 630.9,270.2 668.3,280.8 705.7,259.9 743.0,291.3 780.4,307.5 817.8,286.5 855.2,283.7 892.6,298.0 930.0,299.4" fill="none" stroke="#2563eb" stroke-width="2.5" stroke-linecap="round" stroke-linejoin="round" /><circle cx="70.0" cy="298.2" r="2.8" fill="#2563eb" /><circle cx="107.4" cy="305.3" r="2.8" fill="#2563eb" /><circle cx="144.8" cy="311.9" r="2.8" fill="#2563eb" /><circle cx="182.2" cy="283.0" r="2.8" fill="#2563eb" /><circle cx="219.6" cy="307.6" r="2.8" fill="#2563eb" /><circle cx="257.0" cy="297.9" r="2.8" fill="#2563eb" /><circle cx="294.3" cy="307.5" r="2.8" fill="#2563eb" /><circle cx="331.7" cy="298.0" r="2.8" fill="#2563eb" /><circle cx="369.1" cy="287.5" r="2.8" fill="#2563eb" /><circle cx="406.5" cy="302.3" r="2.8" fill="#2563eb" /><circle cx="443.9" cy="307.8" r="2.8" fill="#2563eb" /><circle cx="481.3" cy="281.5" r="2.8" fill="#2563eb" /><circle cx="518.7" cy="281.9" r="2.8" fill="#2563eb" /><circle cx="556.1" cy="307.2" r="2.8" fill="#2563eb" /><circle cx="593.5" cy="276.0" r="2.8" fill="#2563eb" /><circle cx="630.9" cy="270.2" r="2.8" fill="#2563eb" /><circle cx="668.3" cy="280.8" r="2.8" fill="#2563eb" /><circle cx="705.7" cy="259.9" r="2.8" fill="#2563eb" /><circle cx="743.0" cy="291.3" r="2.8" fill="#2563eb" /><circle cx="780.4" cy="307.5" r="2.8" fill="#2563eb" /><circle cx="817.8" cy="286.5" r="2.8" fill="#2563eb" /><circle cx="855.2" cy="283.7" r="2.8" fill="#2563eb" /><circle cx="892.6" cy="298.0" r="2.8" fill="#2563eb" /><circle cx="930.0" cy="299.4" r="2.8" fill="#2563eb" /><polyline points="70.0,123.8 107.4,123.0 144.8,103.3 182.2,94.3 219.6,124.0 257.0,114.8 294.3,121.1 331.7,106.3 369.1,98.9 406.5,121.5 443.9,131.9 481.3,115.3 518.7,103.1 556.1,78.1 593.5,101.7 630.9,87.1 668.3,113.5 705.7,86.7 743.0,120.6 780.4,113.3 817.8,130.8 855.2,108.3 892.6,132.2 930.0,119.5" fill="none" stroke="#f59e0b" stroke-width="2.5" stroke-linecap="round" stroke-linejoin="round" /><circle cx="70.0" cy="123.8" r="2.8" fill="#f59e0b" /><circle cx="107.4" cy="123.0" r="2.8" fill="#f59e0b" /><circle cx="144.8" cy="103.3" r="2.8" fill="#f59e0b" /><circle cx="182.2" cy="94.3" r="2.8" fill="#f59e0b" /><circle cx="219.6" cy="124.0" r="2.8" fill="#f59e0b" /><circle cx="257.0" cy="114.8" r="2.8" fill="#f59e0b" /><circle cx="294.3" cy="121.1" r="2.8" fill="#f59e0b" /><circle cx="331.7" cy="106.3" r="2.8" fill="#f59e0b" /><circle cx="369.1" cy="98.9" r="2.8" fill="#f59e0b" /><circle cx="406.5" cy="121.5" r="2.8" fill="#f59e0b" /><circle cx="443.9" cy="131.9" r="2.8" fill="#f59e0b" /><circle cx="481.3" cy="115.3" r="2.8" fill="#f59e0b" /><circle cx="518.7" cy="103.1" r="2.8" fill="#f59e0b" /><circle cx="556.1" cy="78.1" r="2.8" fill="#f59e0b" /><circle cx="593.5" cy="101.7" r="2.8" fill="#f59e0b" /><circle cx="630.9" cy="87.1" r="2.8" fill="#f59e0b" /><circle cx="668.3" cy="113.5" r="2.8" fill="#f59e0b" /><circle cx="705.7" cy="86.7" r="2.8" fill="#f59e0b" /><circle cx="743.0" cy="120.6" r="2.8" fill="#f59e0b" /><circle cx="780.4" cy="113.3" r="2.8" fill="#f59e0b" /><circle cx="817.8" cy="130.8" r="2.8" fill="#f59e0b" /><circle cx="855.2" cy="108.3" r="2.8" fill="#f59e0b" /><circle cx="892.6" cy="132.2" r="2.8" fill="#f59e0b" /><circle cx="930.0" cy="119.5" r="2.8" fill="#f59e0b" /><text x="70.0" y="360" text-anchor="middle" font-family="Arial, sans-serif" font-size="10" fill="#6b7280">#226 (2c6afc3)</text><text x="219.6" y="360" text-anchor="middle" font-family="Arial, sans-serif" font-size="10" fill="#6b7280">#230 (ef578cb)</text><text x="369.1" y="360" text-anchor="middle" font-family="Arial, sans-serif" font-size="10" fill="#6b7280">#234 (c5cb6ad)</text><text x="518.7" y="360" text-anchor="middle" font-family="Arial, sans-serif" font-size="10" fill="#6b7280">#238 (6e60d14)</text><text x="668.3" y="360" text-anchor="middle" font-family="Arial, sans-serif" font-size="10" fill="#6b7280">#242 (aa0ffac)</text><text x="817.8" y="360" text-anchor="middle" font-family="Arial, sans-serif" font-size="10" fill="#6b7280">#246 (5ef06dc)</text><text x="930.0" y="360" text-anchor="middle" font-family="Arial, sans-serif" font-size="10" fill="#6b7280">#249 (eb66c50)</text><line x1="70" y1="388" x2="94" y2="388" stroke="#2563eb" stroke-width="3" /><text x="102" y="392" font-family="Arial, sans-serif" font-size="12" fill="#1f2937">Avg build time (ms)</text><line x1="280" y1="388" x2="304" y2="388" stroke="#f59e0b" stroke-width="3" /><text x="312" y="392" font-family="Arial, sans-serif" font-size="12" fill="#1f2937">Avg rasterizer time (ms)</text></svg>