<svg xmlns="http://www.w3.org/2000/svg" width="960" height="420" viewBox="0 0 960 420"><rect width="100%" height="100%" fill="#ffffff" /><text x="70" y="28" font-family="Arial, sans-serif" font-size="20" font-weight="600" fill="#111827">Kalender Performance Trend (Last 50 Runs)</text><line x1="70" y1="340.0" x2="930" y2="340.0" stroke="#e5e7eb" stroke-width="1" /><text x="60" y="344.0" text-anchor="end" font-family="Arial, sans-serif" font-size="11" fill="#6b7280">3.83ms</text><line x1="70" y1="282.0" x2="930" y2="282.0" stroke="#e5e7eb" stroke-width="1" /><text x="60" y="286.0" text-anchor="end" font-family="Arial, sans-serif" font-size="11" fill="#6b7280">4.63ms</text><line x1="70" y1="224.0" x2="930" y2="224.0" stroke="#e5e7eb" stroke-width="1" /><text x="60" y="228.0" text-anchor="end" font-family="Arial, sans-serif" font-size="11" fill="#6b7280">5.43ms</text><line x1="70" y1="166.0" x2="930" y2="166.0" stroke="#e5e7eb" stroke-width="1" /><text x="60" y="170.0" text-anchor="end" font-family="Arial, sans-serif" font-size="11" fill="#6b7280">6.24ms</text><line x1="70" y1="108.0" x2="930" y2="108.0" stroke="#e5e7eb" stroke-width="1" /><text x="60" y="112.0" text-anchor="end" font-family="Arial, sans-serif" font-size="11" fill="#6b7280">7.04ms</text><line x1="70" y1="50.0" x2="930" y2="50.0" stroke="#e5e7eb" stroke-width="1" /><text x="60" y="54.0" text-anchor="end" font-family="Arial, sans-serif" font-size="11" fill="#6b7280">7.85ms</text><line x1="70" y1="340" x2="930" y2="340" stroke="#9ca3af" stroke-width="1.5" /><line x1="70" y1="50" x2="70" y2="340" stroke="#9ca3af" stroke-width="1.5" /><polyline points="70.0,296.3 104.4,303.4 138.8,310.0 173.2,281.3 207.6,305.7 242.0,296.0 276.4,305.6 310.8,296.2 345.2,285.8 379.6,300.4 414.0,305.9 448.4,279.8 482.8,280.1 517.2,305.3 551.6,274.4 586.0,268.6 620.4,279.0 654.8,258.4 689.2,289.5 723.6,305.5 758.0,284.7 792.4,282.0 826.8,296.1 861.2,297.6 895.6,307.9 930.0,311.9" fill="none" stroke="#2563eb" stroke-width="2.5" stroke-linecap="round" stroke-linejoin="round" /><circle cx="70.0" cy="296.3" r="2.8" fill="#2563eb" /><circle cx="104.4" cy="303.4" r="2.8" fill="#2563eb" /><circle cx="138.8" cy="310.0" r="2.8" fill="#2563eb" /><circle cx="173.2" cy="281.3" r="2.8" fill="#2563eb" /><circle cx="207.6" cy="305.7" r="2.8" fill="#2563eb" /><circle cx="242.0" cy="296.0" r="2.8" fill="#2563eb" /><circle cx="276.4" cy="305.6" r="2.8" fill="#2563eb" /><circle cx="310.8" cy="296.2" r="2.8" fill="#2563eb" /><circle cx="345.2" cy="285.8" r="2.8" fill="#2563eb" /><circle cx="379.6" cy="300.4" r="2.8" fill="#2563eb" /><circle cx="414.0" cy="305.9" r="2.8" fill="#2563eb" /><circle cx="448.4" cy="279.8" r="2.8" fill="#2563eb" /><circle cx="482.8" cy="280.1" r="2.8" fill="#2563eb" /><circle cx="517.2" cy="305.3" r="2.8" fill="#2563eb" /><circle cx="551.6" cy="274.4" r="2.8" fill="#2563eb" /><circle cx="586.0" cy="268.6" r="2.8" fill="#2563eb" /><circle cx="620.4" cy="279.0" r="2.8" fill="#2563eb" /><circle cx="654.8" cy="258.4" r="2.8" fill="#2563eb" /><circle cx="689.2" cy="289.5" r="2.8" fill="#2563eb" /><circle cx="723.6" cy="305.5" r="2.8" fill="#2563eb" /><circle cx="758.0" cy="284.7" r="2.8" fill="#2563eb" /><circle cx="792.4" cy="282.0" r="2.8" fill="#2563eb" /><circle cx="826.8" cy="296.1" r="2.8" fill="#2563eb" /><circle cx="861.2" cy="297.6" r="2.8" fill="#2563eb" /><circle cx="895.6" cy="307.9" r="2.8" fill="#2563eb" /><circle cx="930.0" cy="311.9" r="2.8" fill="#2563eb" /><polyline points="70.0,123.4 104.4,122.6 138.8,103.1 173.2,94.2 207.6,123.6 242.0,114.5 276.4,120.7 310.8,106.0 345.2,98.7 379.6,121.2 414.0,131.4 448.4,114.9 482.8,102.9 517.2,78.1 551.6,101.5 586.0,87.0 620.4,113.2 654.8,86.7 689.2,120.3 723.6,113.0 758.0,130.3 792.4,108.1 826.8,131.8 861.2,119.1 895.6,101.5 930.0,89.9" fill="none" stroke="#f59e0b" stroke-width="2.5" stroke-linecap="round" stroke-linejoin="round" /><circle cx="70.0" cy="123.4" r="2.8" fill="#f59e0b" /><circle cx="104.4" cy="122.6" r="2.8" fill="#f59e0b" /><circle cx="138.8" cy="103.1" r="2.8" fill="#f59e0b" /><circle cx="173.2" cy="94.2" r="2.8" fill="#f59e0b" /><circle cx="207.6" cy="123.6" r="2.8" fill="#f59e0b" /><circle cx="242.0" cy="114.5" r="2.8" fill="#f59e0b" /><circle cx="276.4" cy="120.7" r="2.8" fill="#f59e0b" /><circle cx="310.8" cy="106.0" r="2.8" fill="#f59e0b" /><circle cx="345.2" cy="98.7" r="2.8" fill="#f59e0b" /><circle cx="379.6" cy="121.2" r="2.8" fill="#f59e0b" /><circle cx="414.0" cy="131.4" r="2.8" fill="#f59e0b" /><circle cx="448.4" cy="114.9" r="2.8" fill="#f59e0b" /><circle cx="482.8" cy="102.9" r="2.8" fill="#f59e0b" /><circle cx="517.2" cy="78.1" r="2.8" fill="#f59e0b" /><circle cx="551.6" cy="101.5" r="2.8" fill="#f59e0b" /><circle cx="586.0" cy="87.0" r="2.8" fill="#f59e0b" /><circle cx="620.4" cy="113.2" r="2.8" fill="#f59e0b" /><circle cx="654.8" cy="86.7" r="2.8" fill="#f59e0b" /><circle cx="689.2" cy="120.3" r="2.8" fill="#f59e0b" /><circle cx="723.6" cy="113.0" r="2.8" fill="#f59e0b" /><circle cx="758.0" cy="130.3" r="2.8" fill="#f59e0b" /><circle cx="792.4" cy="108.1" r="2.8" fill="#f59e0b" /><circle cx="826.8" cy="131.8" r="2.8" fill="#f59e0b" /><circle cx="861.2" cy="119.1" r="2.8" fill="#f59e0b" /><circle cx="895.6" cy="101.5" r="2.8" fill="#f59e0b" /><circle cx="930.0" cy="89.9" r="2.8" fill="#f59e0b" /><text x="70.0" y="360" text-anchor="middle" font-family="Arial, sans-serif" font-size="10" fill="#6b7280">#226 (2c6afc3)</text><text x="207.6" y="360" text-anchor="middle" font-family="Arial, sans-serif" font-size="10" fill="#6b7280">#230 (ef578cb)</text><text x="345.2" y="360" text-anchor="middle" font-family="Arial, sans-serif" font-size="10" fill="#6b7280">#234 (c5cb6ad)</text><text x="482.8" y="360" text-anchor="middle" font-family="Arial, sans-serif" font-size="10" fill="#6b7280">#238 (6e60d14)</text><text x="620.4" y="360" text-anchor="middle" font-family="Arial, sans-serif" font-size="10" fill="#6b7280">#242 (aa0ffac)</text><text x="758.0" y="360" text-anchor="middle" font-family="Arial, sans-serif" font-size="10" fill="#6b7280">#246 (5ef06dc)</text><text x="895.6" y="360" text-anchor="middle" font-family="Arial, sans-serif" font-size="10" fill="#6b7280">#251 (43970d4)</text><text x="930.0" y="360" text-anchor="middle" font-family="Arial, sans-serif" font-size="10" fill="#6b7280">#252 (6af7ca9)</text><line x1="70" y1="388" x2="94" y2="388" stroke="#2563eb" stroke-width="3" /><text x="102" y="392" font-family="Arial, sans-serif" font-size="12" fill="#1f2937">Avg build time (ms)</text><line x1="280" y1="388" x2="304" y2="388" stroke="#f59e0b" stroke-width="3" /><text x="312" y="392" font-family="Arial, sans-serif" font-size="12" fill="#1f2937">Avg rasterizer time (ms)</text></svg>