<svg xmlns="http://www.w3.org/2000/svg" width="960" height="420" viewBox="0 0 960 420"><rect width="100%" height="100%" fill="#ffffff" /><text x="70" y="28" font-family="Arial, sans-serif" font-size="20" font-weight="600" fill="#111827">Kalender Performance Trend (Last 50 Runs)</text><line x1="70" y1="340.0" x2="930" y2="340.0" stroke="#e5e7eb" stroke-width="1" /><text x="60" y="344.0" text-anchor="end" font-family="Arial, sans-serif" font-size="11" fill="#6b7280">3.86ms</text><line x1="70" y1="282.0" x2="930" y2="282.0" stroke="#e5e7eb" stroke-width="1" /><text x="60" y="286.0" text-anchor="end" font-family="Arial, sans-serif" font-size="11" fill="#6b7280">4.65ms</text><line x1="70" y1="224.0" x2="930" y2="224.0" stroke="#e5e7eb" stroke-width="1" /><text x="60" y="228.0" text-anchor="end" font-family="Arial, sans-serif" font-size="11" fill="#6b7280">5.45ms</text><line x1="70" y1="166.0" x2="930" y2="166.0" stroke="#e5e7eb" stroke-width="1" /><text x="60" y="170.0" text-anchor="end" font-family="Arial, sans-serif" font-size="11" fill="#6b7280">6.25ms</text><line x1="70" y1="108.0" x2="930" y2="108.0" stroke="#e5e7eb" stroke-width="1" /><text x="60" y="112.0" text-anchor="end" font-family="Arial, sans-serif" font-size="11" fill="#6b7280">7.05ms</text><line x1="70" y1="50.0" x2="930" y2="50.0" stroke="#e5e7eb" stroke-width="1" /><text x="60" y="54.0" text-anchor="end" font-family="Arial, sans-serif" font-size="11" fill="#6b7280">7.84ms</text><line x1="70" y1="340" x2="930" y2="340" stroke="#9ca3af" stroke-width="1.5" /><line x1="70" y1="50" x2="70" y2="340" stroke="#9ca3af" stroke-width="1.5" /><polyline points="70.0,298.2 120.6,305.3 171.2,311.9 221.8,283.0 272.4,307.6 322.9,297.9 373.5,307.5 424.1,298.0 474.7,287.5 525.3,302.3 575.9,307.8 626.5,281.5 677.1,281.9 727.6,307.2 778.2,276.0 828.8,270.2 879.4,280.8 930.0,259.9" fill="none" stroke="#2563eb" stroke-width="2.5" stroke-linecap="round" stroke-linejoin="round" /><circle cx="70.0" cy="298.2" r="2.8" fill="#2563eb" /><circle cx="120.6" cy="305.3" r="2.8" fill="#2563eb" /><circle cx="171.2" cy="311.9" r="2.8" fill="#2563eb" /><circle cx="221.8" cy="283.0" r="2.8" fill="#2563eb" /><circle cx="272.4" cy="307.6" r="2.8" fill="#2563eb" /><circle cx="322.9" cy="297.9" r="2.8" fill="#2563eb" /><circle cx="373.5" cy="307.5" r="2.8" fill="#2563eb" /><circle cx="424.1" cy="298.0" r="2.8" fill="#2563eb" /><circle cx="474.7" cy="287.5" r="2.8" fill="#2563eb" /><circle cx="525.3" cy="302.3" r="2.8" fill="#2563eb" /><circle cx="575.9" cy="307.8" r="2.8" fill="#2563eb" /><circle cx="626.5" cy="281.5" r="2.8" fill="#2563eb" /><circle cx="677.1" cy="281.9" r="2.8" fill="#2563eb" /><circle cx="727.6" cy="307.2" r="2.8" fill="#2563eb" /><circle cx="778.2" cy="276.0" r="2.8" fill="#2563eb" /><circle cx="828.8" cy="270.2" r="2.8" fill="#2563eb" /><circle cx="879.4" cy="280.8" r="2.8" fill="#2563eb" /><circle cx="930.0" cy="259.9" r="2.8" fill="#2563eb" /><polyline points="70.0,123.8 120.6,123.0 171.2,103.3 221.8,94.3 272.4,124.0 322.9,114.8 373.5,121.1 424.1,106.3 474.7,98.9 525.3,121.5 575.9,131.9 626.5,115.3 677.1,103.1 727.6,78.1 778.2,101.7 828.8,87.1 879.4,113.5 930.0,86.7" fill="none" stroke="#f59e0b" stroke-width="2.5" stroke-linecap="round" stroke-linejoin="round" /><circle cx="70.0" cy="123.8" r="2.8" fill="#f59e0b" /><circle cx="120.6" cy="123.0" r="2.8" fill="#f59e0b" /><circle cx="171.2" cy="103.3" r="2.8" fill="#f59e0b" /><circle cx="221.8" cy="94.3" r="2.8" fill="#f59e0b" /><circle cx="272.4" cy="124.0" r="2.8" fill="#f59e0b" /><circle cx="322.9" cy="114.8" r="2.8" fill="#f59e0b" /><circle cx="373.5" cy="121.1" r="2.8" fill="#f59e0b" /><circle cx="424.1" cy="106.3" r="2.8" fill="#f59e0b" /><circle cx="474.7" cy="98.9" r="2.8" fill="#f59e0b" /><circle cx="525.3" cy="121.5" r="2.8" fill="#f59e0b" /><circle cx="575.9" cy="131.9" r="2.8" fill="#f59e0b" /><circle cx="626.5" cy="115.3" r="2.8" fill="#f59e0b" /><circle cx="677.1" cy="103.1" r="2.8" fill="#f59e0b" /><circle cx="727.6" cy="78.1" r="2.8" fill="#f59e0b" /><circle cx="778.2" cy="101.7" r="2.8" fill="#f59e0b" /><circle cx="828.8" cy="87.1" r="2.8" fill="#f59e0b" /><circle cx="879.4" cy="113.5" r="2.8" fill="#f59e0b" /><circle cx="930.0" cy="86.7" r="2.8" fill="#f59e0b" /><text x="70.0" y="360" text-anchor="middle" font-family="Arial, sans-serif" font-size="10" fill="#6b7280">#226 (2c6afc3)</text><text x="221.8" y="360" text-anchor="middle" font-family="Arial, sans-serif" font-size="10" fill="#6b7280">#229 (8b5e7ea)</text><text x="373.5" y="360" text-anchor="middle" font-family="Arial, sans-serif" font-size="10" fill="#6b7280">#232 (08a5a8a)</text><text x="525.3" y="360" text-anchor="middle" font-family="Arial, sans-serif" font-size="10" fill="#6b7280">#235 (b12564f)</text><text x="677.1" y="360" text-anchor="middle" font-family="Arial, sans-serif" font-size="10" fill="#6b7280">#238 (6e60d14)</text><text x="828.8" y="360" text-anchor="middle" font-family="Arial, sans-serif" font-size="10" fill="#6b7280">#241 (ad053ef)</text><text x="930.0" y="360" text-anchor="middle" font-family="Arial, sans-serif" font-size="10" fill="#6b7280">#243 (75472ae)</text><line x1="70" y1="388" x2="94" y2="388" stroke="#2563eb" stroke-width="3" /><text x="102" y="392" font-family="Arial, sans-serif" font-size="12" fill="#1f2937">Avg build time (ms)</text><line x1="280" y1="388" x2="304" y2="388" stroke="#f59e0b" stroke-width="3" /><text x="312" y="392" font-family="Arial, sans-serif" font-size="12" fill="#1f2937">Avg rasterizer time (ms)</text></svg>