<svg xmlns="http://www.w3.org/2000/svg" width="960" height="420" viewBox="0 0 960 420"><rect width="100%" height="100%" fill="#ffffff" /><text x="70" y="28" font-family="Arial, sans-serif" font-size="20" font-weight="600" fill="#111827">Kalender Performance Trend (Last 50 Runs)</text><line x1="70" y1="340.0" x2="930" y2="340.0" stroke="#e5e7eb" stroke-width="1" /><text x="60" y="344.0" text-anchor="end" font-family="Arial, sans-serif" font-size="11" fill="#6b7280">3.83ms</text><line x1="70" y1="282.0" x2="930" y2="282.0" stroke="#e5e7eb" stroke-width="1" /><text x="60" y="286.0" text-anchor="end" font-family="Arial, sans-serif" font-size="11" fill="#6b7280">4.63ms</text><line x1="70" y1="224.0" x2="930" y2="224.0" stroke="#e5e7eb" stroke-width="1" /><text x="60" y="228.0" text-anchor="end" font-family="Arial, sans-serif" font-size="11" fill="#6b7280">5.43ms</text><line x1="70" y1="166.0" x2="930" y2="166.0" stroke="#e5e7eb" stroke-width="1" /><text x="60" y="170.0" text-anchor="end" font-family="Arial, sans-serif" font-size="11" fill="#6b7280">6.24ms</text><line x1="70" y1="108.0" x2="930" y2="108.0" stroke="#e5e7eb" stroke-width="1" /><text x="60" y="112.0" text-anchor="end" font-family="Arial, sans-serif" font-size="11" fill="#6b7280">7.04ms</text><line x1="70" y1="50.0" x2="930" y2="50.0" stroke="#e5e7eb" stroke-width="1" /><text x="60" y="54.0" text-anchor="end" font-family="Arial, sans-serif" font-size="11" fill="#6b7280">7.85ms</text><line x1="70" y1="340" x2="930" y2="340" stroke="#9ca3af" stroke-width="1.5" /><line x1="70" y1="50" x2="70" y2="340" stroke="#9ca3af" stroke-width="1.5" /><polyline points="70.0,296.3 99.7,303.4 129.3,310.0 159.0,281.3 188.6,305.7 218.3,296.0 247.9,305.6 277.6,296.2 307.2,285.8 336.9,300.4 366.6,305.9 396.2,279.8 425.9,280.1 455.5,305.3 485.2,274.4 514.8,268.6 544.5,279.0 574.1,258.4 603.8,289.5 633.4,305.5 663.1,284.7 692.8,282.0 722.4,296.1 752.1,297.6 781.7,307.9 811.4,311.9 841.0,287.4 870.7,269.3 900.3,270.1 930.0,282.3" fill="none" stroke="#2563eb" stroke-width="2.5" stroke-linecap="round" stroke-linejoin="round" /><circle cx="70.0" cy="296.3" r="2.8" fill="#2563eb" /><circle cx="99.7" cy="303.4" r="2.8" fill="#2563eb" /><circle cx="129.3" cy="310.0" r="2.8" fill="#2563eb" /><circle cx="159.0" cy="281.3" r="2.8" fill="#2563eb" /><circle cx="188.6" cy="305.7" r="2.8" fill="#2563eb" /><circle cx="218.3" cy="296.0" r="2.8" fill="#2563eb" /><circle cx="247.9" cy="305.6" r="2.8" fill="#2563eb" /><circle cx="277.6" cy="296.2" r="2.8" fill="#2563eb" /><circle cx="307.2" cy="285.8" r="2.8" fill="#2563eb" /><circle cx="336.9" cy="300.4" r="2.8" fill="#2563eb" /><circle cx="366.6" cy="305.9" r="2.8" fill="#2563eb" /><circle cx="396.2" cy="279.8" r="2.8" fill="#2563eb" /><circle cx="425.9" cy="280.1" r="2.8" fill="#2563eb" /><circle cx="455.5" cy="305.3" r="2.8" fill="#2563eb" /><circle cx="485.2" cy="274.4" r="2.8" fill="#2563eb" /><circle cx="514.8" cy="268.6" r="2.8" fill="#2563eb" /><circle cx="544.5" cy="279.0" r="2.8" fill="#2563eb" /><circle cx="574.1" cy="258.4" r="2.8" fill="#2563eb" /><circle cx="603.8" cy="289.5" r="2.8" fill="#2563eb" /><circle cx="633.4" cy="305.5" r="2.8" fill="#2563eb" /><circle cx="663.1" cy="284.7" r="2.8" fill="#2563eb" /><circle cx="692.8" cy="282.0" r="2.8" fill="#2563eb" /><circle cx="722.4" cy="296.1" r="2.8" fill="#2563eb" /><circle cx="752.1" cy="297.6" r="2.8" fill="#2563eb" /><circle cx="781.7" cy="307.9" r="2.8" fill="#2563eb" /><circle cx="811.4" cy="311.9" r="2.8" fill="#2563eb" /><circle cx="841.0" cy="287.4" r="2.8" fill="#2563eb" /><circle cx="870.7" cy="269.3" r="2.8" fill="#2563eb" /><circle cx="900.3" cy="270.1" r="2.8" fill="#2563eb" /><circle cx="930.0" cy="282.3" r="2.8" fill="#2563eb" /><polyline points="70.0,123.4 99.7,122.6 129.3,103.1 159.0,94.2 188.6,123.6 218.3,114.5 247.9,120.7 277.6,106.0 307.2,98.7 336.9,121.2 366.6,131.4 396.2,114.9 425.9,102.9 455.5,78.1 485.2,101.5 514.8,87.0 544.5,113.2 574.1,86.7 603.8,120.3 633.4,113.0 663.1,130.3 692.8,108.1 722.4,131.8 752.1,119.1 781.7,101.5 811.4,89.9 841.0,123.4 870.7,107.4 900.3,90.4 930.0,107.3" fill="none" stroke="#f59e0b" stroke-width="2.5" stroke-linecap="round" stroke-linejoin="round" /><circle cx="70.0" cy="123.4" r="2.8" fill="#f59e0b" /><circle cx="99.7" cy="122.6" r="2.8" fill="#f59e0b" /><circle cx="129.3" cy="103.1" r="2.8" fill="#f59e0b" /><circle cx="159.0" cy="94.2" r="2.8" fill="#f59e0b" /><circle cx="188.6" cy="123.6" r="2.8" fill="#f59e0b" /><circle cx="218.3" cy="114.5" r="2.8" fill="#f59e0b" /><circle cx="247.9" cy="120.7" r="2.8" fill="#f59e0b" /><circle cx="277.6" cy="106.0" r="2.8" fill="#f59e0b" /><circle cx="307.2" cy="98.7" r="2.8" fill="#f59e0b" /><circle cx="336.9" cy="121.2" r="2.8" fill="#f59e0b" /><circle cx="366.6" cy="131.4" r="2.8" fill="#f59e0b" /><circle cx="396.2" cy="114.9" r="2.8" fill="#f59e0b" /><circle cx="425.9" cy="102.9" r="2.8" fill="#f59e0b" /><circle cx="455.5" cy="78.1" r="2.8" fill="#f59e0b" /><circle cx="485.2" cy="101.5" r="2.8" fill="#f59e0b" /><circle cx="514.8" cy="87.0" r="2.8" fill="#f59e0b" /><circle cx="544.5" cy="113.2" r="2.8" fill="#f59e0b" /><circle cx="574.1" cy="86.7" r="2.8" fill="#f59e0b" /><circle cx="603.8" cy="120.3" r="2.8" fill="#f59e0b" /><circle cx="633.4" cy="113.0" r="2.8" fill="#f59e0b" /><circle cx="663.1" cy="130.3" r="2.8" fill="#f59e0b" /><circle cx="692.8" cy="108.1" r="2.8" fill="#f59e0b" /><circle cx="722.4" cy="131.8" r="2.8" fill="#f59e0b" /><circle cx="752.1" cy="119.1" r="2.8" fill="#f59e0b" /><circle cx="781.7" cy="101.5" r="2.8" fill="#f59e0b" /><circle cx="811.4" cy="89.9" r="2.8" fill="#f59e0b" /><circle cx="841.0" cy="123.4" r="2.8" fill="#f59e0b" /><circle cx="870.7" cy="107.4" r="2.8" fill="#f59e0b" /><circle cx="900.3" cy="90.4" r="2.8" fill="#f59e0b" /><circle cx="930.0" cy="107.3" r="2.8" fill="#f59e0b" /><text x="70.0" y="360" text-anchor="middle" font-family="Arial, sans-serif" font-size="10" fill="#6b7280">#226 (2c6afc3)</text><text x="218.3" y="360" text-anchor="middle" font-family="Arial, sans-serif" font-size="10" fill="#6b7280">#231 (ee021f0)</text><text x="366.6" y="360" text-anchor="middle" font-family="Arial, sans-serif" font-size="10" fill="#6b7280">#236 (a0f1140)</text><text x="514.8" y="360" text-anchor="middle" font-family="Arial, sans-serif" font-size="10" fill="#6b7280">#241 (ad053ef)</text><text x="663.1" y="360" text-anchor="middle" font-family="Arial, sans-serif" font-size="10" fill="#6b7280">#246 (5ef06dc)</text><text x="811.4" y="360" text-anchor="middle" font-family="Arial, sans-serif" font-size="10" fill="#6b7280">#252 (6af7ca9)</text><text x="930.0" y="360" text-anchor="middle" font-family="Arial, sans-serif" font-size="10" fill="#6b7280">#256 (becc830)</text><line x1="70" y1="388" x2="94" y2="388" stroke="#2563eb" stroke-width="3" /><text x="102" y="392" font-family="Arial, sans-serif" font-size="12" fill="#1f2937">Avg build time (ms)</text><line x1="280" y1="388" x2="304" y2="388" stroke="#f59e0b" stroke-width="3" /><text x="312" y="392" font-family="Arial, sans-serif" font-size="12" fill="#1f2937">Avg rasterizer time (ms)</text></svg>