<svg xmlns="http://www.w3.org/2000/svg" width="960" height="420" viewBox="0 0 960 420"><rect width="100%" height="100%" fill="#ffffff" /><text x="70" y="28" font-family="Arial, sans-serif" font-size="20" font-weight="600" fill="#111827">Kalender Performance Trend (Last 50 Runs)</text><line x1="70" y1="340.0" x2="930" y2="340.0" stroke="#e5e7eb" stroke-width="1" /><text x="60" y="344.0" text-anchor="end" font-family="Arial, sans-serif" font-size="11" fill="#6b7280">3.88ms</text><line x1="70" y1="282.0" x2="930" y2="282.0" stroke="#e5e7eb" stroke-width="1" /><text x="60" y="286.0" text-anchor="end" font-family="Arial, sans-serif" font-size="11" fill="#6b7280">4.63ms</text><line x1="70" y1="224.0" x2="930" y2="224.0" stroke="#e5e7eb" stroke-width="1" /><text x="60" y="228.0" text-anchor="end" font-family="Arial, sans-serif" font-size="11" fill="#6b7280">5.37ms</text><line x1="70" y1="166.0" x2="930" y2="166.0" stroke="#e5e7eb" stroke-width="1" /><text x="60" y="170.0" text-anchor="end" font-family="Arial, sans-serif" font-size="11" fill="#6b7280">6.11ms</text><line x1="70" y1="108.0" x2="930" y2="108.0" stroke="#e5e7eb" stroke-width="1" /><text x="60" y="112.0" text-anchor="end" font-family="Arial, sans-serif" font-size="11" fill="#6b7280">6.85ms</text><line x1="70" y1="50.0" x2="930" y2="50.0" stroke="#e5e7eb" stroke-width="1" /><text x="60" y="54.0" text-anchor="end" font-family="Arial, sans-serif" font-size="11" fill="#6b7280">7.59ms</text><line x1="70" y1="340" x2="930" y2="340" stroke="#9ca3af" stroke-width="1.5" /><line x1="70" y1="50" x2="70" y2="340" stroke="#9ca3af" stroke-width="1.5" /><polyline points="70.0,297.2 141.7,304.8 213.3,311.9 285.0,280.8 356.7,307.3 428.3,296.8 500.0,307.2 571.7,297.0 643.3,285.7 715.0,301.6 786.7,307.5 858.3,279.3 930.0,279.6" fill="none" stroke="#2563eb" stroke-width="2.5" stroke-linecap="round" stroke-linejoin="round" /><circle cx="70.0" cy="297.2" r="2.8" fill="#2563eb" /><circle cx="141.7" cy="304.8" r="2.8" fill="#2563eb" /><circle cx="213.3" cy="311.9" r="2.8" fill="#2563eb" /><circle cx="285.0" cy="280.8" r="2.8" fill="#2563eb" /><circle cx="356.7" cy="307.3" r="2.8" fill="#2563eb" /><circle cx="428.3" cy="296.8" r="2.8" fill="#2563eb" /><circle cx="500.0" cy="307.2" r="2.8" fill="#2563eb" /><circle cx="571.7" cy="297.0" r="2.8" fill="#2563eb" /><circle cx="643.3" cy="285.7" r="2.8" fill="#2563eb" /><circle cx="715.0" cy="301.6" r="2.8" fill="#2563eb" /><circle cx="786.7" cy="307.5" r="2.8" fill="#2563eb" /><circle cx="858.3" cy="279.3" r="2.8" fill="#2563eb" /><circle cx="930.0" cy="279.6" r="2.8" fill="#2563eb" /><polyline points="70.0,109.7 141.7,108.9 213.3,87.7 285.0,78.1 356.7,109.9 428.3,100.1 500.0,106.8 571.7,90.9 643.3,82.9 715.0,107.3 786.7,118.4 858.3,100.5 930.0,87.4" fill="none" stroke="#f59e0b" stroke-width="2.5" stroke-linecap="round" stroke-linejoin="round" /><circle cx="70.0" cy="109.7" r="2.8" fill="#f59e0b" /><circle cx="141.7" cy="108.9" r="2.8" fill="#f59e0b" /><circle cx="213.3" cy="87.7" r="2.8" fill="#f59e0b" /><circle cx="285.0" cy="78.1" r="2.8" fill="#f59e0b" /><circle cx="356.7" cy="109.9" r="2.8" fill="#f59e0b" /><circle cx="428.3" cy="100.1" r="2.8" fill="#f59e0b" /><circle cx="500.0" cy="106.8" r="2.8" fill="#f59e0b" /><circle cx="571.7" cy="90.9" r="2.8" fill="#f59e0b" /><circle cx="643.3" cy="82.9" r="2.8" fill="#f59e0b" /><circle cx="715.0" cy="107.3" r="2.8" fill="#f59e0b" /><circle cx="786.7" cy="118.4" r="2.8" fill="#f59e0b" /><circle cx="858.3" cy="100.5" r="2.8" fill="#f59e0b" /><circle cx="930.0" cy="87.4" r="2.8" fill="#f59e0b" /><text x="70.0" y="360" text-anchor="middle" font-family="Arial, sans-serif" font-size="10" fill="#6b7280">#226 (2c6afc3)</text><text x="213.3" y="360" text-anchor="middle" font-family="Arial, sans-serif" font-size="10" fill="#6b7280">#228 (c60fbd2)</text><text x="356.7" y="360" text-anchor="middle" font-family="Arial, sans-serif" font-size="10" fill="#6b7280">#230 (ef578cb)</text><text x="500.0" y="360" text-anchor="middle" font-family="Arial, sans-serif" font-size="10" fill="#6b7280">#232 (08a5a8a)</text><text x="643.3" y="360" text-anchor="middle" font-family="Arial, sans-serif" font-size="10" fill="#6b7280">#234 (c5cb6ad)</text><text x="786.7" y="360" text-anchor="middle" font-family="Arial, sans-serif" font-size="10" fill="#6b7280">#236 (a0f1140)</text><text x="930.0" y="360" text-anchor="middle" font-family="Arial, sans-serif" font-size="10" fill="#6b7280">#238 (6e60d14)</text><line x1="70" y1="388" x2="94" y2="388" stroke="#2563eb" stroke-width="3" /><text x="102" y="392" font-family="Arial, sans-serif" font-size="12" fill="#1f2937">Avg build time (ms)</text><line x1="280" y1="388" x2="304" y2="388" stroke="#f59e0b" stroke-width="3" /><text x="312" y="392" font-family="Arial, sans-serif" font-size="12" fill="#1f2937">Avg rasterizer time (ms)</text></svg>