<svg xmlns="http://www.w3.org/2000/svg" width="960" height="420" viewBox="0 0 960 420"><rect width="100%" height="100%" fill="#ffffff" /><text x="70" y="28" font-family="Arial, sans-serif" font-size="20" font-weight="600" fill="#111827">Kalender Performance Trend (Last 50 Runs)</text><line x1="70" y1="340.0" x2="930" y2="340.0" stroke="#e5e7eb" stroke-width="1" /><text x="60" y="344.0" text-anchor="end" font-family="Arial, sans-serif" font-size="11" fill="#6b7280">3.86ms</text><line x1="70" y1="282.0" x2="930" y2="282.0" stroke="#e5e7eb" stroke-width="1" /><text x="60" y="286.0" text-anchor="end" font-family="Arial, sans-serif" font-size="11" fill="#6b7280">4.65ms</text><line x1="70" y1="224.0" x2="930" y2="224.0" stroke="#e5e7eb" stroke-width="1" /><text x="60" y="228.0" text-anchor="end" font-family="Arial, sans-serif" font-size="11" fill="#6b7280">5.45ms</text><line x1="70" y1="166.0" x2="930" y2="166.0" stroke="#e5e7eb" stroke-width="1" /><text x="60" y="170.0" text-anchor="end" font-family="Arial, sans-serif" font-size="11" fill="#6b7280">6.25ms</text><line x1="70" y1="108.0" x2="930" y2="108.0" stroke="#e5e7eb" stroke-width="1" /><text x="60" y="112.0" text-anchor="end" font-family="Arial, sans-serif" font-size="11" fill="#6b7280">7.05ms</text><line x1="70" y1="50.0" x2="930" y2="50.0" stroke="#e5e7eb" stroke-width="1" /><text x="60" y="54.0" text-anchor="end" font-family="Arial, sans-serif" font-size="11" fill="#6b7280">7.84ms</text><line x1="70" y1="340" x2="930" y2="340" stroke="#9ca3af" stroke-width="1.5" /><line x1="70" y1="50" x2="70" y2="340" stroke="#9ca3af" stroke-width="1.5" /><polyline points="70.0,298.2 113.0,305.3 156.0,311.9 199.0,283.0 242.0,307.6 285.0,297.9 328.0,307.5 371.0,298.0 414.0,287.5 457.0,302.3 500.0,307.8 543.0,281.5 586.0,281.9 629.0,307.2 672.0,276.0 715.0,270.2 758.0,280.8 801.0,259.9 844.0,291.3 887.0,307.5 930.0,286.5" fill="none" stroke="#2563eb" stroke-width="2.5" stroke-linecap="round" stroke-linejoin="round" /><circle cx="70.0" cy="298.2" r="2.8" fill="#2563eb" /><circle cx="113.0" cy="305.3" r="2.8" fill="#2563eb" /><circle cx="156.0" cy="311.9" r="2.8" fill="#2563eb" /><circle cx="199.0" cy="283.0" r="2.8" fill="#2563eb" /><circle cx="242.0" cy="307.6" r="2.8" fill="#2563eb" /><circle cx="285.0" cy="297.9" r="2.8" fill="#2563eb" /><circle cx="328.0" cy="307.5" r="2.8" fill="#2563eb" /><circle cx="371.0" cy="298.0" r="2.8" fill="#2563eb" /><circle cx="414.0" cy="287.5" r="2.8" fill="#2563eb" /><circle cx="457.0" cy="302.3" r="2.8" fill="#2563eb" /><circle cx="500.0" cy="307.8" r="2.8" fill="#2563eb" /><circle cx="543.0" cy="281.5" r="2.8" fill="#2563eb" /><circle cx="586.0" cy="281.9" r="2.8" fill="#2563eb" /><circle cx="629.0" cy="307.2" r="2.8" fill="#2563eb" /><circle cx="672.0" cy="276.0" r="2.8" fill="#2563eb" /><circle cx="715.0" cy="270.2" r="2.8" fill="#2563eb" /><circle cx="758.0" cy="280.8" r="2.8" fill="#2563eb" /><circle cx="801.0" cy="259.9" r="2.8" fill="#2563eb" /><circle cx="844.0" cy="291.3" r="2.8" fill="#2563eb" /><circle cx="887.0" cy="307.5" r="2.8" fill="#2563eb" /><circle cx="930.0" cy="286.5" r="2.8" fill="#2563eb" /><polyline points="70.0,123.8 113.0,123.0 156.0,103.3 199.0,94.3 242.0,124.0 285.0,114.8 328.0,121.1 371.0,106.3 414.0,98.9 457.0,121.5 500.0,131.9 543.0,115.3 586.0,103.1 629.0,78.1 672.0,101.7 715.0,87.1 758.0,113.5 801.0,86.7 844.0,120.6 887.0,113.3 930.0,130.8" fill="none" stroke="#f59e0b" stroke-width="2.5" stroke-linecap="round" stroke-linejoin="round" /><circle cx="70.0" cy="123.8" r="2.8" fill="#f59e0b" /><circle cx="113.0" cy="123.0" r="2.8" fill="#f59e0b" /><circle cx="156.0" cy="103.3" r="2.8" fill="#f59e0b" /><circle cx="199.0" cy="94.3" r="2.8" fill="#f59e0b" /><circle cx="242.0" cy="124.0" r="2.8" fill="#f59e0b" /><circle cx="285.0" cy="114.8" r="2.8" fill="#f59e0b" /><circle cx="328.0" cy="121.1" r="2.8" fill="#f59e0b" /><circle cx="371.0" cy="106.3" r="2.8" fill="#f59e0b" /><circle cx="414.0" cy="98.9" r="2.8" fill="#f59e0b" /><circle cx="457.0" cy="121.5" r="2.8" fill="#f59e0b" /><circle cx="500.0" cy="131.9" r="2.8" fill="#f59e0b" /><circle cx="543.0" cy="115.3" r="2.8" fill="#f59e0b" /><circle cx="586.0" cy="103.1" r="2.8" fill="#f59e0b" /><circle cx="629.0" cy="78.1" r="2.8" fill="#f59e0b" /><circle cx="672.0" cy="101.7" r="2.8" fill="#f59e0b" /><circle cx="715.0" cy="87.1" r="2.8" fill="#f59e0b" /><circle cx="758.0" cy="113.5" r="2.8" fill="#f59e0b" /><circle cx="801.0" cy="86.7" r="2.8" fill="#f59e0b" /><circle cx="844.0" cy="120.6" r="2.8" fill="#f59e0b" /><circle cx="887.0" cy="113.3" r="2.8" fill="#f59e0b" /><circle cx="930.0" cy="130.8" r="2.8" fill="#f59e0b" /><text x="70.0" y="360" text-anchor="middle" font-family="Arial, sans-serif" font-size="10" fill="#6b7280">#226 (2c6afc3)</text><text x="199.0" y="360" text-anchor="middle" font-family="Arial, sans-serif" font-size="10" fill="#6b7280">#229 (8b5e7ea)</text><text x="328.0" y="360" text-anchor="middle" font-family="Arial, sans-serif" font-size="10" fill="#6b7280">#232 (08a5a8a)</text><text x="457.0" y="360" text-anchor="middle" font-family="Arial, sans-serif" font-size="10" fill="#6b7280">#235 (b12564f)</text><text x="586.0" y="360" text-anchor="middle" font-family="Arial, sans-serif" font-size="10" fill="#6b7280">#238 (6e60d14)</text><text x="715.0" y="360" text-anchor="middle" font-family="Arial, sans-serif" font-size="10" fill="#6b7280">#241 (ad053ef)</text><text x="844.0" y="360" text-anchor="middle" font-family="Arial, sans-serif" font-size="10" fill="#6b7280">#244 (6d8b32a)</text><text x="930.0" y="360" text-anchor="middle" font-family="Arial, sans-serif" font-size="10" fill="#6b7280">#246 (5ef06dc)</text><line x1="70" y1="388" x2="94" y2="388" stroke="#2563eb" stroke-width="3" /><text x="102" y="392" font-family="Arial, sans-serif" font-size="12" fill="#1f2937">Avg build time (ms)</text><line x1="280" y1="388" x2="304" y2="388" stroke="#f59e0b" stroke-width="3" /><text x="312" y="392" font-family="Arial, sans-serif" font-size="12" fill="#1f2937">Avg rasterizer time (ms)</text></svg>