<svg xmlns="http://www.w3.org/2000/svg" width="960" height="420" viewBox="0 0 960 420"><rect width="100%" height="100%" fill="#ffffff" /><text x="70" y="28" font-family="Arial, sans-serif" font-size="20" font-weight="600" fill="#111827">Kalender Performance Trend (Last 50 Runs)</text><line x1="70" y1="340.0" x2="930" y2="340.0" stroke="#e5e7eb" stroke-width="1" /><text x="60" y="344.0" text-anchor="end" font-family="Arial, sans-serif" font-size="11" fill="#6b7280">3.86ms</text><line x1="70" y1="282.0" x2="930" y2="282.0" stroke="#e5e7eb" stroke-width="1" /><text x="60" y="286.0" text-anchor="end" font-family="Arial, sans-serif" font-size="11" fill="#6b7280">4.65ms</text><line x1="70" y1="224.0" x2="930" y2="224.0" stroke="#e5e7eb" stroke-width="1" /><text x="60" y="228.0" text-anchor="end" font-family="Arial, sans-serif" font-size="11" fill="#6b7280">5.45ms</text><line x1="70" y1="166.0" x2="930" y2="166.0" stroke="#e5e7eb" stroke-width="1" /><text x="60" y="170.0" text-anchor="end" font-family="Arial, sans-serif" font-size="11" fill="#6b7280">6.25ms</text><line x1="70" y1="108.0" x2="930" y2="108.0" stroke="#e5e7eb" stroke-width="1" /><text x="60" y="112.0" text-anchor="end" font-family="Arial, sans-serif" font-size="11" fill="#6b7280">7.05ms</text><line x1="70" y1="50.0" x2="930" y2="50.0" stroke="#e5e7eb" stroke-width="1" /><text x="60" y="54.0" text-anchor="end" font-family="Arial, sans-serif" font-size="11" fill="#6b7280">7.84ms</text><line x1="70" y1="340" x2="930" y2="340" stroke="#9ca3af" stroke-width="1.5" /><line x1="70" y1="50" x2="70" y2="340" stroke="#9ca3af" stroke-width="1.5" /><polyline points="70.0,298.2 136.2,305.3 202.3,311.9 268.5,283.0 334.6,307.6 400.8,297.9 466.9,307.5 533.1,298.0 599.2,287.5 665.4,302.3 731.5,307.8 797.7,281.5 863.8,281.9 930.0,307.2" fill="none" stroke="#2563eb" stroke-width="2.5" stroke-linecap="round" stroke-linejoin="round" /><circle cx="70.0" cy="298.2" r="2.8" fill="#2563eb" /><circle cx="136.2" cy="305.3" r="2.8" fill="#2563eb" /><circle cx="202.3" cy="311.9" r="2.8" fill="#2563eb" /><circle cx="268.5" cy="283.0" r="2.8" fill="#2563eb" /><circle cx="334.6" cy="307.6" r="2.8" fill="#2563eb" /><circle cx="400.8" cy="297.9" r="2.8" fill="#2563eb" /><circle cx="466.9" cy="307.5" r="2.8" fill="#2563eb" /><circle cx="533.1" cy="298.0" r="2.8" fill="#2563eb" /><circle cx="599.2" cy="287.5" r="2.8" fill="#2563eb" /><circle cx="665.4" cy="302.3" r="2.8" fill="#2563eb" /><circle cx="731.5" cy="307.8" r="2.8" fill="#2563eb" /><circle cx="797.7" cy="281.5" r="2.8" fill="#2563eb" /><circle cx="863.8" cy="281.9" r="2.8" fill="#2563eb" /><circle cx="930.0" cy="307.2" r="2.8" fill="#2563eb" /><polyline points="70.0,123.8 136.2,123.0 202.3,103.3 268.5,94.3 334.6,124.0 400.8,114.8 466.9,121.1 533.1,106.3 599.2,98.9 665.4,121.5 731.5,131.9 797.7,115.3 863.8,103.1 930.0,78.1" fill="none" stroke="#f59e0b" stroke-width="2.5" stroke-linecap="round" stroke-linejoin="round" /><circle cx="70.0" cy="123.8" r="2.8" fill="#f59e0b" /><circle cx="136.2" cy="123.0" r="2.8" fill="#f59e0b" /><circle cx="202.3" cy="103.3" r="2.8" fill="#f59e0b" /><circle cx="268.5" cy="94.3" r="2.8" fill="#f59e0b" /><circle cx="334.6" cy="124.0" r="2.8" fill="#f59e0b" /><circle cx="400.8" cy="114.8" r="2.8" fill="#f59e0b" /><circle cx="466.9" cy="121.1" r="2.8" fill="#f59e0b" /><circle cx="533.1" cy="106.3" r="2.8" fill="#f59e0b" /><circle cx="599.2" cy="98.9" r="2.8" fill="#f59e0b" /><circle cx="665.4" cy="121.5" r="2.8" fill="#f59e0b" /><circle cx="731.5" cy="131.9" r="2.8" fill="#f59e0b" /><circle cx="797.7" cy="115.3" r="2.8" fill="#f59e0b" /><circle cx="863.8" cy="103.1" r="2.8" fill="#f59e0b" /><circle cx="930.0" cy="78.1" r="2.8" fill="#f59e0b" /><text x="70.0" y="360" text-anchor="middle" font-family="Arial, sans-serif" font-size="10" fill="#6b7280">#226 (2c6afc3)</text><text x="202.3" y="360" text-anchor="middle" font-family="Arial, sans-serif" font-size="10" fill="#6b7280">#228 (c60fbd2)</text><text x="334.6" y="360" text-anchor="middle" font-family="Arial, sans-serif" font-size="10" fill="#6b7280">#230 (ef578cb)</text><text x="466.9" y="360" text-anchor="middle" font-family="Arial, sans-serif" font-size="10" fill="#6b7280">#232 (08a5a8a)</text><text x="599.2" y="360" text-anchor="middle" font-family="Arial, sans-serif" font-size="10" fill="#6b7280">#234 (c5cb6ad)</text><text x="731.5" y="360" text-anchor="middle" font-family="Arial, sans-serif" font-size="10" fill="#6b7280">#236 (a0f1140)</text><text x="863.8" y="360" text-anchor="middle" font-family="Arial, sans-serif" font-size="10" fill="#6b7280">#238 (6e60d14)</text><text x="930.0" y="360" text-anchor="middle" font-family="Arial, sans-serif" font-size="10" fill="#6b7280">#239 (4fee945)</text><line x1="70" y1="388" x2="94" y2="388" stroke="#2563eb" stroke-width="3" /><text x="102" y="392" font-family="Arial, sans-serif" font-size="12" fill="#1f2937">Avg build time (ms)</text><line x1="280" y1="388" x2="304" y2="388" stroke="#f59e0b" stroke-width="3" /><text x="312" y="392" font-family="Arial, sans-serif" font-size="12" fill="#1f2937">Avg rasterizer time (ms)</text></svg>