<svg xmlns="http://www.w3.org/2000/svg" width="960" height="420" viewBox="0 0 960 420"><rect width="100%" height="100%" fill="#ffffff" /><text x="70" y="28" font-family="Arial, sans-serif" font-size="20" font-weight="600" fill="#111827">Kalender Performance Trend (Last 50 Runs)</text><line x1="70" y1="340.0" x2="930" y2="340.0" stroke="#e5e7eb" stroke-width="1" /><text x="60" y="344.0" text-anchor="end" font-family="Arial, sans-serif" font-size="11" fill="#6b7280">3.86ms</text><line x1="70" y1="282.0" x2="930" y2="282.0" stroke="#e5e7eb" stroke-width="1" /><text x="60" y="286.0" text-anchor="end" font-family="Arial, sans-serif" font-size="11" fill="#6b7280">4.65ms</text><line x1="70" y1="224.0" x2="930" y2="224.0" stroke="#e5e7eb" stroke-width="1" /><text x="60" y="228.0" text-anchor="end" font-family="Arial, sans-serif" font-size="11" fill="#6b7280">5.45ms</text><line x1="70" y1="166.0" x2="930" y2="166.0" stroke="#e5e7eb" stroke-width="1" /><text x="60" y="170.0" text-anchor="end" font-family="Arial, sans-serif" font-size="11" fill="#6b7280">6.25ms</text><line x1="70" y1="108.0" x2="930" y2="108.0" stroke="#e5e7eb" stroke-width="1" /><text x="60" y="112.0" text-anchor="end" font-family="Arial, sans-serif" font-size="11" fill="#6b7280">7.05ms</text><line x1="70" y1="50.0" x2="930" y2="50.0" stroke="#e5e7eb" stroke-width="1" /><text x="60" y="54.0" text-anchor="end" font-family="Arial, sans-serif" font-size="11" fill="#6b7280">7.84ms</text><line x1="70" y1="340" x2="930" y2="340" stroke="#9ca3af" stroke-width="1.5" /><line x1="70" y1="50" x2="70" y2="340" stroke="#9ca3af" stroke-width="1.5" /><polyline points="70.0,298.2 111.0,305.3 151.9,311.9 192.9,283.0 233.8,307.6 274.8,297.9 315.7,307.5 356.7,298.0 397.6,287.5 438.6,302.3 479.5,307.8 520.5,281.5 561.4,281.9 602.4,307.2 643.3,276.0 684.3,270.2 725.2,280.8 766.2,259.9 807.1,291.3 848.1,307.5 889.0,286.5 930.0,283.7" fill="none" stroke="#2563eb" stroke-width="2.5" stroke-linecap="round" stroke-linejoin="round" /><circle cx="70.0" cy="298.2" r="2.8" fill="#2563eb" /><circle cx="111.0" cy="305.3" r="2.8" fill="#2563eb" /><circle cx="151.9" cy="311.9" r="2.8" fill="#2563eb" /><circle cx="192.9" cy="283.0" r="2.8" fill="#2563eb" /><circle cx="233.8" cy="307.6" r="2.8" fill="#2563eb" /><circle cx="274.8" cy="297.9" r="2.8" fill="#2563eb" /><circle cx="315.7" cy="307.5" r="2.8" fill="#2563eb" /><circle cx="356.7" cy="298.0" r="2.8" fill="#2563eb" /><circle cx="397.6" cy="287.5" r="2.8" fill="#2563eb" /><circle cx="438.6" cy="302.3" r="2.8" fill="#2563eb" /><circle cx="479.5" cy="307.8" r="2.8" fill="#2563eb" /><circle cx="520.5" cy="281.5" r="2.8" fill="#2563eb" /><circle cx="561.4" cy="281.9" r="2.8" fill="#2563eb" /><circle cx="602.4" cy="307.2" r="2.8" fill="#2563eb" /><circle cx="643.3" cy="276.0" r="2.8" fill="#2563eb" /><circle cx="684.3" cy="270.2" r="2.8" fill="#2563eb" /><circle cx="725.2" cy="280.8" r="2.8" fill="#2563eb" /><circle cx="766.2" cy="259.9" r="2.8" fill="#2563eb" /><circle cx="807.1" cy="291.3" r="2.8" fill="#2563eb" /><circle cx="848.1" cy="307.5" r="2.8" fill="#2563eb" /><circle cx="889.0" cy="286.5" r="2.8" fill="#2563eb" /><circle cx="930.0" cy="283.7" r="2.8" fill="#2563eb" /><polyline points="70.0,123.8 111.0,123.0 151.9,103.3 192.9,94.3 233.8,124.0 274.8,114.8 315.7,121.1 356.7,106.3 397.6,98.9 438.6,121.5 479.5,131.9 520.5,115.3 561.4,103.1 602.4,78.1 643.3,101.7 684.3,87.1 725.2,113.5 766.2,86.7 807.1,120.6 848.1,113.3 889.0,130.8 930.0,108.3" fill="none" stroke="#f59e0b" stroke-width="2.5" stroke-linecap="round" stroke-linejoin="round" /><circle cx="70.0" cy="123.8" r="2.8" fill="#f59e0b" /><circle cx="111.0" cy="123.0" r="2.8" fill="#f59e0b" /><circle cx="151.9" cy="103.3" r="2.8" fill="#f59e0b" /><circle cx="192.9" cy="94.3" r="2.8" fill="#f59e0b" /><circle cx="233.8" cy="124.0" r="2.8" fill="#f59e0b" /><circle cx="274.8" cy="114.8" r="2.8" fill="#f59e0b" /><circle cx="315.7" cy="121.1" r="2.8" fill="#f59e0b" /><circle cx="356.7" cy="106.3" r="2.8" fill="#f59e0b" /><circle cx="397.6" cy="98.9" r="2.8" fill="#f59e0b" /><circle cx="438.6" cy="121.5" r="2.8" fill="#f59e0b" /><circle cx="479.5" cy="131.9" r="2.8" fill="#f59e0b" /><circle cx="520.5" cy="115.3" r="2.8" fill="#f59e0b" /><circle cx="561.4" cy="103.1" r="2.8" fill="#f59e0b" /><circle cx="602.4" cy="78.1" r="2.8" fill="#f59e0b" /><circle cx="643.3" cy="101.7" r="2.8" fill="#f59e0b" /><circle cx="684.3" cy="87.1" r="2.8" fill="#f59e0b" /><circle cx="725.2" cy="113.5" r="2.8" fill="#f59e0b" /><circle cx="766.2" cy="86.7" r="2.8" fill="#f59e0b" /><circle cx="807.1" cy="120.6" r="2.8" fill="#f59e0b" /><circle cx="848.1" cy="113.3" r="2.8" fill="#f59e0b" /><circle cx="889.0" cy="130.8" r="2.8" fill="#f59e0b" /><circle cx="930.0" cy="108.3" r="2.8" fill="#f59e0b" /><text x="70.0" y="360" text-anchor="middle" font-family="Arial, sans-serif" font-size="10" fill="#6b7280">#226 (2c6afc3)</text><text x="192.9" y="360" text-anchor="middle" font-family="Arial, sans-serif" font-size="10" fill="#6b7280">#229 (8b5e7ea)</text><text x="315.7" y="360" text-anchor="middle" font-family="Arial, sans-serif" font-size="10" fill="#6b7280">#232 (08a5a8a)</text><text x="438.6" y="360" text-anchor="middle" font-family="Arial, sans-serif" font-size="10" fill="#6b7280">#235 (b12564f)</text><text x="561.4" y="360" text-anchor="middle" font-family="Arial, sans-serif" font-size="10" fill="#6b7280">#238 (6e60d14)</text><text x="684.3" y="360" text-anchor="middle" font-family="Arial, sans-serif" font-size="10" fill="#6b7280">#241 (ad053ef)</text><text x="807.1" y="360" text-anchor="middle" font-family="Arial, sans-serif" font-size="10" fill="#6b7280">#244 (6d8b32a)</text><text x="930.0" y="360" text-anchor="middle" font-family="Arial, sans-serif" font-size="10" fill="#6b7280">#247 (2a31adb)</text><line x1="70" y1="388" x2="94" y2="388" stroke="#2563eb" stroke-width="3" /><text x="102" y="392" font-family="Arial, sans-serif" font-size="12" fill="#1f2937">Avg build time (ms)</text><line x1="280" y1="388" x2="304" y2="388" stroke="#f59e0b" stroke-width="3" /><text x="312" y="392" font-family="Arial, sans-serif" font-size="12" fill="#1f2937">Avg rasterizer time (ms)</text></svg>