<svg xmlns="http://www.w3.org/2000/svg" width="960" height="420" viewBox="0 0 960 420"><rect width="100%" height="100%" fill="#ffffff" /><text x="70" y="28" font-family="Arial, sans-serif" font-size="20" font-weight="600" fill="#111827">Kalender Performance Trend (Last 50 Runs)</text><line x1="70" y1="340.0" x2="930" y2="340.0" stroke="#e5e7eb" stroke-width="1" /><text x="60" y="344.0" text-anchor="end" font-family="Arial, sans-serif" font-size="11" fill="#6b7280">3.83ms</text><line x1="70" y1="282.0" x2="930" y2="282.0" stroke="#e5e7eb" stroke-width="1" /><text x="60" y="286.0" text-anchor="end" font-family="Arial, sans-serif" font-size="11" fill="#6b7280">4.63ms</text><line x1="70" y1="224.0" x2="930" y2="224.0" stroke="#e5e7eb" stroke-width="1" /><text x="60" y="228.0" text-anchor="end" font-family="Arial, sans-serif" font-size="11" fill="#6b7280">5.43ms</text><line x1="70" y1="166.0" x2="930" y2="166.0" stroke="#e5e7eb" stroke-width="1" /><text x="60" y="170.0" text-anchor="end" font-family="Arial, sans-serif" font-size="11" fill="#6b7280">6.24ms</text><line x1="70" y1="108.0" x2="930" y2="108.0" stroke="#e5e7eb" stroke-width="1" /><text x="60" y="112.0" text-anchor="end" font-family="Arial, sans-serif" font-size="11" fill="#6b7280">7.04ms</text><line x1="70" y1="50.0" x2="930" y2="50.0" stroke="#e5e7eb" stroke-width="1" /><text x="60" y="54.0" text-anchor="end" font-family="Arial, sans-serif" font-size="11" fill="#6b7280">7.85ms</text><line x1="70" y1="340" x2="930" y2="340" stroke="#9ca3af" stroke-width="1.5" /><line x1="70" y1="50" x2="70" y2="340" stroke="#9ca3af" stroke-width="1.5" /><polyline points="70.0,296.3 98.7,303.4 127.3,310.0 156.0,281.3 184.7,305.7 213.3,296.0 242.0,305.6 270.7,296.2 299.3,285.8 328.0,300.4 356.7,305.9 385.3,279.8 414.0,280.1 442.7,305.3 471.3,274.4 500.0,268.6 528.7,279.0 557.3,258.4 586.0,289.5 614.7,305.5 643.3,284.7 672.0,282.0 700.7,296.1 729.3,297.6 758.0,307.9 786.7,311.9 815.3,287.4 844.0,269.3 872.7,270.1 901.3,282.3 930.0,300.9" fill="none" stroke="#2563eb" stroke-width="2.5" stroke-linecap="round" stroke-linejoin="round" /><circle cx="70.0" cy="296.3" r="2.8" fill="#2563eb" /><circle cx="98.7" cy="303.4" r="2.8" fill="#2563eb" /><circle cx="127.3" cy="310.0" r="2.8" fill="#2563eb" /><circle cx="156.0" cy="281.3" r="2.8" fill="#2563eb" /><circle cx="184.7" cy="305.7" r="2.8" fill="#2563eb" /><circle cx="213.3" cy="296.0" r="2.8" fill="#2563eb" /><circle cx="242.0" cy="305.6" r="2.8" fill="#2563eb" /><circle cx="270.7" cy="296.2" r="2.8" fill="#2563eb" /><circle cx="299.3" cy="285.8" r="2.8" fill="#2563eb" /><circle cx="328.0" cy="300.4" r="2.8" fill="#2563eb" /><circle cx="356.7" cy="305.9" r="2.8" fill="#2563eb" /><circle cx="385.3" cy="279.8" r="2.8" fill="#2563eb" /><circle cx="414.0" cy="280.1" r="2.8" fill="#2563eb" /><circle cx="442.7" cy="305.3" r="2.8" fill="#2563eb" /><circle cx="471.3" cy="274.4" r="2.8" fill="#2563eb" /><circle cx="500.0" cy="268.6" r="2.8" fill="#2563eb" /><circle cx="528.7" cy="279.0" r="2.8" fill="#2563eb" /><circle cx="557.3" cy="258.4" r="2.8" fill="#2563eb" /><circle cx="586.0" cy="289.5" r="2.8" fill="#2563eb" /><circle cx="614.7" cy="305.5" r="2.8" fill="#2563eb" /><circle cx="643.3" cy="284.7" r="2.8" fill="#2563eb" /><circle cx="672.0" cy="282.0" r="2.8" fill="#2563eb" /><circle cx="700.7" cy="296.1" r="2.8" fill="#2563eb" /><circle cx="729.3" cy="297.6" r="2.8" fill="#2563eb" /><circle cx="758.0" cy="307.9" r="2.8" fill="#2563eb" /><circle cx="786.7" cy="311.9" r="2.8" fill="#2563eb" /><circle cx="815.3" cy="287.4" r="2.8" fill="#2563eb" /><circle cx="844.0" cy="269.3" r="2.8" fill="#2563eb" /><circle cx="872.7" cy="270.1" r="2.8" fill="#2563eb" /><circle cx="901.3" cy="282.3" r="2.8" fill="#2563eb" /><circle cx="930.0" cy="300.9" r="2.8" fill="#2563eb" /><polyline points="70.0,123.4 98.7,122.6 127.3,103.1 156.0,94.2 184.7,123.6 213.3,114.5 242.0,120.7 270.7,106.0 299.3,98.7 328.0,121.2 356.7,131.4 385.3,114.9 414.0,102.9 442.7,78.1 471.3,101.5 500.0,87.0 528.7,113.2 557.3,86.7 586.0,120.3 614.7,113.0 643.3,130.3 672.0,108.1 700.7,131.8 729.3,119.1 758.0,101.5 786.7,89.9 815.3,123.4 844.0,107.4 872.7,90.4 901.3,107.3 930.0,123.1" fill="none" stroke="#f59e0b" stroke-width="2.5" stroke-linecap="round" stroke-linejoin="round" /><circle cx="70.0" cy="123.4" r="2.8" fill="#f59e0b" /><circle cx="98.7" cy="122.6" r="2.8" fill="#f59e0b" /><circle cx="127.3" cy="103.1" r="2.8" fill="#f59e0b" /><circle cx="156.0" cy="94.2" r="2.8" fill="#f59e0b" /><circle cx="184.7" cy="123.6" r="2.8" fill="#f59e0b" /><circle cx="213.3" cy="114.5" r="2.8" fill="#f59e0b" /><circle cx="242.0" cy="120.7" r="2.8" fill="#f59e0b" /><circle cx="270.7" cy="106.0" r="2.8" fill="#f59e0b" /><circle cx="299.3" cy="98.7" r="2.8" fill="#f59e0b" /><circle cx="328.0" cy="121.2" r="2.8" fill="#f59e0b" /><circle cx="356.7" cy="131.4" r="2.8" fill="#f59e0b" /><circle cx="385.3" cy="114.9" r="2.8" fill="#f59e0b" /><circle cx="414.0" cy="102.9" r="2.8" fill="#f59e0b" /><circle cx="442.7" cy="78.1" r="2.8" fill="#f59e0b" /><circle cx="471.3" cy="101.5" r="2.8" fill="#f59e0b" /><circle cx="500.0" cy="87.0" r="2.8" fill="#f59e0b" /><circle cx="528.7" cy="113.2" r="2.8" fill="#f59e0b" /><circle cx="557.3" cy="86.7" r="2.8" fill="#f59e0b" /><circle cx="586.0" cy="120.3" r="2.8" fill="#f59e0b" /><circle cx="614.7" cy="113.0" r="2.8" fill="#f59e0b" /><circle cx="643.3" cy="130.3" r="2.8" fill="#f59e0b" /><circle cx="672.0" cy="108.1" r="2.8" fill="#f59e0b" /><circle cx="700.7" cy="131.8" r="2.8" fill="#f59e0b" /><circle cx="729.3" cy="119.1" r="2.8" fill="#f59e0b" /><circle cx="758.0" cy="101.5" r="2.8" fill="#f59e0b" /><circle cx="786.7" cy="89.9" r="2.8" fill="#f59e0b" /><circle cx="815.3" cy="123.4" r="2.8" fill="#f59e0b" /><circle cx="844.0" cy="107.4" r="2.8" fill="#f59e0b" /><circle cx="872.7" cy="90.4" r="2.8" fill="#f59e0b" /><circle cx="901.3" cy="107.3" r="2.8" fill="#f59e0b" /><circle cx="930.0" cy="123.1" r="2.8" fill="#f59e0b" /><text x="70.0" y="360" text-anchor="middle" font-family="Arial, sans-serif" font-size="10" fill="#6b7280">#226 (2c6afc3)</text><text x="213.3" y="360" text-anchor="middle" font-family="Arial, sans-serif" font-size="10" fill="#6b7280">#231 (ee021f0)</text><text x="356.7" y="360" text-anchor="middle" font-family="Arial, sans-serif" font-size="10" fill="#6b7280">#236 (a0f1140)</text><text x="500.0" y="360" text-anchor="middle" font-family="Arial, sans-serif" font-size="10" fill="#6b7280">#241 (ad053ef)</text><text x="643.3" y="360" text-anchor="middle" font-family="Arial, sans-serif" font-size="10" fill="#6b7280">#246 (5ef06dc)</text><text x="786.7" y="360" text-anchor="middle" font-family="Arial, sans-serif" font-size="10" fill="#6b7280">#252 (6af7ca9)</text><text x="930.0" y="360" text-anchor="middle" font-family="Arial, sans-serif" font-size="10" fill="#6b7280">#257 (10f7922)</text><line x1="70" y1="388" x2="94" y2="388" stroke="#2563eb" stroke-width="3" /><text x="102" y="392" font-family="Arial, sans-serif" font-size="12" fill="#1f2937">Avg build time (ms)</text><line x1="280" y1="388" x2="304" y2="388" stroke="#f59e0b" stroke-width="3" /><text x="312" y="392" font-family="Arial, sans-serif" font-size="12" fill="#1f2937">Avg rasterizer time (ms)</text></svg>