<svg xmlns="http://www.w3.org/2000/svg" width="960" height="420" viewBox="0 0 960 420"><rect width="100%" height="100%" fill="#ffffff" /><text x="70" y="28" font-family="Arial, sans-serif" font-size="20" font-weight="600" fill="#111827">Kalender Performance Trend (Last 50 Runs)</text><line x1="70" y1="340.0" x2="930" y2="340.0" stroke="#e5e7eb" stroke-width="1" /><text x="60" y="344.0" text-anchor="end" font-family="Arial, sans-serif" font-size="11" fill="#6b7280">3.86ms</text><line x1="70" y1="282.0" x2="930" y2="282.0" stroke="#e5e7eb" stroke-width="1" /><text x="60" y="286.0" text-anchor="end" font-family="Arial, sans-serif" font-size="11" fill="#6b7280">4.65ms</text><line x1="70" y1="224.0" x2="930" y2="224.0" stroke="#e5e7eb" stroke-width="1" /><text x="60" y="228.0" text-anchor="end" font-family="Arial, sans-serif" font-size="11" fill="#6b7280">5.45ms</text><line x1="70" y1="166.0" x2="930" y2="166.0" stroke="#e5e7eb" stroke-width="1" /><text x="60" y="170.0" text-anchor="end" font-family="Arial, sans-serif" font-size="11" fill="#6b7280">6.25ms</text><line x1="70" y1="108.0" x2="930" y2="108.0" stroke="#e5e7eb" stroke-width="1" /><text x="60" y="112.0" text-anchor="end" font-family="Arial, sans-serif" font-size="11" fill="#6b7280">7.05ms</text><line x1="70" y1="50.0" x2="930" y2="50.0" stroke="#e5e7eb" stroke-width="1" /><text x="60" y="54.0" text-anchor="end" font-family="Arial, sans-serif" font-size="11" fill="#6b7280">7.84ms</text><line x1="70" y1="340" x2="930" y2="340" stroke="#9ca3af" stroke-width="1.5" /><line x1="70" y1="50" x2="70" y2="340" stroke="#9ca3af" stroke-width="1.5" /><polyline points="70.0,298.2 117.8,305.3 165.6,311.9 213.3,283.0 261.1,307.6 308.9,297.9 356.7,307.5 404.4,298.0 452.2,287.5 500.0,302.3 547.8,307.8 595.6,281.5 643.3,281.9 691.1,307.2 738.9,276.0 786.7,270.2 834.4,280.8 882.2,259.9 930.0,291.3" fill="none" stroke="#2563eb" stroke-width="2.5" stroke-linecap="round" stroke-linejoin="round" /><circle cx="70.0" cy="298.2" r="2.8" fill="#2563eb" /><circle cx="117.8" cy="305.3" r="2.8" fill="#2563eb" /><circle cx="165.6" cy="311.9" r="2.8" fill="#2563eb" /><circle cx="213.3" cy="283.0" r="2.8" fill="#2563eb" /><circle cx="261.1" cy="307.6" r="2.8" fill="#2563eb" /><circle cx="308.9" cy="297.9" r="2.8" fill="#2563eb" /><circle cx="356.7" cy="307.5" r="2.8" fill="#2563eb" /><circle cx="404.4" cy="298.0" r="2.8" fill="#2563eb" /><circle cx="452.2" cy="287.5" r="2.8" fill="#2563eb" /><circle cx="500.0" cy="302.3" r="2.8" fill="#2563eb" /><circle cx="547.8" cy="307.8" r="2.8" fill="#2563eb" /><circle cx="595.6" cy="281.5" r="2.8" fill="#2563eb" /><circle cx="643.3" cy="281.9" r="2.8" fill="#2563eb" /><circle cx="691.1" cy="307.2" r="2.8" fill="#2563eb" /><circle cx="738.9" cy="276.0" r="2.8" fill="#2563eb" /><circle cx="786.7" cy="270.2" r="2.8" fill="#2563eb" /><circle cx="834.4" cy="280.8" r="2.8" fill="#2563eb" /><circle cx="882.2" cy="259.9" r="2.8" fill="#2563eb" /><circle cx="930.0" cy="291.3" r="2.8" fill="#2563eb" /><polyline points="70.0,123.8 117.8,123.0 165.6,103.3 213.3,94.3 261.1,124.0 308.9,114.8 356.7,121.1 404.4,106.3 452.2,98.9 500.0,121.5 547.8,131.9 595.6,115.3 643.3,103.1 691.1,78.1 738.9,101.7 786.7,87.1 834.4,113.5 882.2,86.7 930.0,120.6" fill="none" stroke="#f59e0b" stroke-width="2.5" stroke-linecap="round" stroke-linejoin="round" /><circle cx="70.0" cy="123.8" r="2.8" fill="#f59e0b" /><circle cx="117.8" cy="123.0" r="2.8" fill="#f59e0b" /><circle cx="165.6" cy="103.3" r="2.8" fill="#f59e0b" /><circle cx="213.3" cy="94.3" r="2.8" fill="#f59e0b" /><circle cx="261.1" cy="124.0" r="2.8" fill="#f59e0b" /><circle cx="308.9" cy="114.8" r="2.8" fill="#f59e0b" /><circle cx="356.7" cy="121.1" r="2.8" fill="#f59e0b" /><circle cx="404.4" cy="106.3" r="2.8" fill="#f59e0b" /><circle cx="452.2" cy="98.9" r="2.8" fill="#f59e0b" /><circle cx="500.0" cy="121.5" r="2.8" fill="#f59e0b" /><circle cx="547.8" cy="131.9" r="2.8" fill="#f59e0b" /><circle cx="595.6" cy="115.3" r="2.8" fill="#f59e0b" /><circle cx="643.3" cy="103.1" r="2.8" fill="#f59e0b" /><circle cx="691.1" cy="78.1" r="2.8" fill="#f59e0b" /><circle cx="738.9" cy="101.7" r="2.8" fill="#f59e0b" /><circle cx="786.7" cy="87.1" r="2.8" fill="#f59e0b" /><circle cx="834.4" cy="113.5" r="2.8" fill="#f59e0b" /><circle cx="882.2" cy="86.7" r="2.8" fill="#f59e0b" /><circle cx="930.0" cy="120.6" r="2.8" fill="#f59e0b" /><text x="70.0" y="360" text-anchor="middle" font-family="Arial, sans-serif" font-size="10" fill="#6b7280">#226 (2c6afc3)</text><text x="213.3" y="360" text-anchor="middle" font-family="Arial, sans-serif" font-size="10" fill="#6b7280">#229 (8b5e7ea)</text><text x="356.7" y="360" text-anchor="middle" font-family="Arial, sans-serif" font-size="10" fill="#6b7280">#232 (08a5a8a)</text><text x="500.0" y="360" text-anchor="middle" font-family="Arial, sans-serif" font-size="10" fill="#6b7280">#235 (b12564f)</text><text x="643.3" y="360" text-anchor="middle" font-family="Arial, sans-serif" font-size="10" fill="#6b7280">#238 (6e60d14)</text><text x="786.7" y="360" text-anchor="middle" font-family="Arial, sans-serif" font-size="10" fill="#6b7280">#241 (ad053ef)</text><text x="930.0" y="360" text-anchor="middle" font-family="Arial, sans-serif" font-size="10" fill="#6b7280">#244 (6d8b32a)</text><line x1="70" y1="388" x2="94" y2="388" stroke="#2563eb" stroke-width="3" /><text x="102" y="392" font-family="Arial, sans-serif" font-size="12" fill="#1f2937">Avg build time (ms)</text><line x1="280" y1="388" x2="304" y2="388" stroke="#f59e0b" stroke-width="3" /><text x="312" y="392" font-family="Arial, sans-serif" font-size="12" fill="#1f2937">Avg rasterizer time (ms)</text></svg>