<svg xmlns="http://www.w3.org/2000/svg" width="960" height="420" viewBox="0 0 960 420"><rect width="100%" height="100%" fill="#ffffff" /><text x="70" y="28" font-family="Arial, sans-serif" font-size="20" font-weight="600" fill="#111827">Kalender Performance Trend (Last 50 Runs)</text><line x1="70" y1="340.0" x2="930" y2="340.0" stroke="#e5e7eb" stroke-width="1" /><text x="60" y="344.0" text-anchor="end" font-family="Arial, sans-serif" font-size="11" fill="#6b7280">3.83ms</text><line x1="70" y1="282.0" x2="930" y2="282.0" stroke="#e5e7eb" stroke-width="1" /><text x="60" y="286.0" text-anchor="end" font-family="Arial, sans-serif" font-size="11" fill="#6b7280">4.63ms</text><line x1="70" y1="224.0" x2="930" y2="224.0" stroke="#e5e7eb" stroke-width="1" /><text x="60" y="228.0" text-anchor="end" font-family="Arial, sans-serif" font-size="11" fill="#6b7280">5.43ms</text><line x1="70" y1="166.0" x2="930" y2="166.0" stroke="#e5e7eb" stroke-width="1" /><text x="60" y="170.0" text-anchor="end" font-family="Arial, sans-serif" font-size="11" fill="#6b7280">6.24ms</text><line x1="70" y1="108.0" x2="930" y2="108.0" stroke="#e5e7eb" stroke-width="1" /><text x="60" y="112.0" text-anchor="end" font-family="Arial, sans-serif" font-size="11" fill="#6b7280">7.04ms</text><line x1="70" y1="50.0" x2="930" y2="50.0" stroke="#e5e7eb" stroke-width="1" /><text x="60" y="54.0" text-anchor="end" font-family="Arial, sans-serif" font-size="11" fill="#6b7280">7.85ms</text><line x1="70" y1="340" x2="930" y2="340" stroke="#9ca3af" stroke-width="1.5" /><line x1="70" y1="50" x2="70" y2="340" stroke="#9ca3af" stroke-width="1.5" /><polyline points="70.0,296.3 100.7,303.4 131.4,310.0 162.1,281.3 192.9,305.7 223.6,296.0 254.3,305.6 285.0,296.2 315.7,285.8 346.4,300.4 377.1,305.9 407.9,279.8 438.6,280.1 469.3,305.3 500.0,274.4 530.7,268.6 561.4,279.0 592.1,258.4 622.9,289.5 653.6,305.5 684.3,284.7 715.0,282.0 745.7,296.1 776.4,297.6 807.1,307.9 837.9,311.9 868.6,287.4 899.3,269.3 930.0,270.1" fill="none" stroke="#2563eb" stroke-width="2.5" stroke-linecap="round" stroke-linejoin="round" /><circle cx="70.0" cy="296.3" r="2.8" fill="#2563eb" /><circle cx="100.7" cy="303.4" r="2.8" fill="#2563eb" /><circle cx="131.4" cy="310.0" r="2.8" fill="#2563eb" /><circle cx="162.1" cy="281.3" r="2.8" fill="#2563eb" /><circle cx="192.9" cy="305.7" r="2.8" fill="#2563eb" /><circle cx="223.6" cy="296.0" r="2.8" fill="#2563eb" /><circle cx="254.3" cy="305.6" r="2.8" fill="#2563eb" /><circle cx="285.0" cy="296.2" r="2.8" fill="#2563eb" /><circle cx="315.7" cy="285.8" r="2.8" fill="#2563eb" /><circle cx="346.4" cy="300.4" r="2.8" fill="#2563eb" /><circle cx="377.1" cy="305.9" r="2.8" fill="#2563eb" /><circle cx="407.9" cy="279.8" r="2.8" fill="#2563eb" /><circle cx="438.6" cy="280.1" r="2.8" fill="#2563eb" /><circle cx="469.3" cy="305.3" r="2.8" fill="#2563eb" /><circle cx="500.0" cy="274.4" r="2.8" fill="#2563eb" /><circle cx="530.7" cy="268.6" r="2.8" fill="#2563eb" /><circle cx="561.4" cy="279.0" r="2.8" fill="#2563eb" /><circle cx="592.1" cy="258.4" r="2.8" fill="#2563eb" /><circle cx="622.9" cy="289.5" r="2.8" fill="#2563eb" /><circle cx="653.6" cy="305.5" r="2.8" fill="#2563eb" /><circle cx="684.3" cy="284.7" r="2.8" fill="#2563eb" /><circle cx="715.0" cy="282.0" r="2.8" fill="#2563eb" /><circle cx="745.7" cy="296.1" r="2.8" fill="#2563eb" /><circle cx="776.4" cy="297.6" r="2.8" fill="#2563eb" /><circle cx="807.1" cy="307.9" r="2.8" fill="#2563eb" /><circle cx="837.9" cy="311.9" r="2.8" fill="#2563eb" /><circle cx="868.6" cy="287.4" r="2.8" fill="#2563eb" /><circle cx="899.3" cy="269.3" r="2.8" fill="#2563eb" /><circle cx="930.0" cy="270.1" r="2.8" fill="#2563eb" /><polyline points="70.0,123.4 100.7,122.6 131.4,103.1 162.1,94.2 192.9,123.6 223.6,114.5 254.3,120.7 285.0,106.0 315.7,98.7 346.4,121.2 377.1,131.4 407.9,114.9 438.6,102.9 469.3,78.1 500.0,101.5 530.7,87.0 561.4,113.2 592.1,86.7 622.9,120.3 653.6,113.0 684.3,130.3 715.0,108.1 745.7,131.8 776.4,119.1 807.1,101.5 837.9,89.9 868.6,123.4 899.3,107.4 930.0,90.4" fill="none" stroke="#f59e0b" stroke-width="2.5" stroke-linecap="round" stroke-linejoin="round" /><circle cx="70.0" cy="123.4" r="2.8" fill="#f59e0b" /><circle cx="100.7" cy="122.6" r="2.8" fill="#f59e0b" /><circle cx="131.4" cy="103.1" r="2.8" fill="#f59e0b" /><circle cx="162.1" cy="94.2" r="2.8" fill="#f59e0b" /><circle cx="192.9" cy="123.6" r="2.8" fill="#f59e0b" /><circle cx="223.6" cy="114.5" r="2.8" fill="#f59e0b" /><circle cx="254.3" cy="120.7" r="2.8" fill="#f59e0b" /><circle cx="285.0" cy="106.0" r="2.8" fill="#f59e0b" /><circle cx="315.7" cy="98.7" r="2.8" fill="#f59e0b" /><circle cx="346.4" cy="121.2" r="2.8" fill="#f59e0b" /><circle cx="377.1" cy="131.4" r="2.8" fill="#f59e0b" /><circle cx="407.9" cy="114.9" r="2.8" fill="#f59e0b" /><circle cx="438.6" cy="102.9" r="2.8" fill="#f59e0b" /><circle cx="469.3" cy="78.1" r="2.8" fill="#f59e0b" /><circle cx="500.0" cy="101.5" r="2.8" fill="#f59e0b" /><circle cx="530.7" cy="87.0" r="2.8" fill="#f59e0b" /><circle cx="561.4" cy="113.2" r="2.8" fill="#f59e0b" /><circle cx="592.1" cy="86.7" r="2.8" fill="#f59e0b" /><circle cx="622.9" cy="120.3" r="2.8" fill="#f59e0b" /><circle cx="653.6" cy="113.0" r="2.8" fill="#f59e0b" /><circle cx="684.3" cy="130.3" r="2.8" fill="#f59e0b" /><circle cx="715.0" cy="108.1" r="2.8" fill="#f59e0b" /><circle cx="745.7" cy="131.8" r="2.8" fill="#f59e0b" /><circle cx="776.4" cy="119.1" r="2.8" fill="#f59e0b" /><circle cx="807.1" cy="101.5" r="2.8" fill="#f59e0b" /><circle cx="837.9" cy="89.9" r="2.8" fill="#f59e0b" /><circle cx="868.6" cy="123.4" r="2.8" fill="#f59e0b" /><circle cx="899.3" cy="107.4" r="2.8" fill="#f59e0b" /><circle cx="930.0" cy="90.4" r="2.8" fill="#f59e0b" /><text x="70.0" y="360" text-anchor="middle" font-family="Arial, sans-serif" font-size="10" fill="#6b7280">#226 (2c6afc3)</text><text x="192.9" y="360" text-anchor="middle" font-family="Arial, sans-serif" font-size="10" fill="#6b7280">#230 (ef578cb)</text><text x="315.7" y="360" text-anchor="middle" font-family="Arial, sans-serif" font-size="10" fill="#6b7280">#234 (c5cb6ad)</text><text x="438.6" y="360" text-anchor="middle" font-family="Arial, sans-serif" font-size="10" fill="#6b7280">#238 (6e60d14)</text><text x="561.4" y="360" text-anchor="middle" font-family="Arial, sans-serif" font-size="10" fill="#6b7280">#242 (aa0ffac)</text><text x="684.3" y="360" text-anchor="middle" font-family="Arial, sans-serif" font-size="10" fill="#6b7280">#246 (5ef06dc)</text><text x="807.1" y="360" text-anchor="middle" font-family="Arial, sans-serif" font-size="10" fill="#6b7280">#251 (43970d4)</text><text x="930.0" y="360" text-anchor="middle" font-family="Arial, sans-serif" font-size="10" fill="#6b7280">#255 (2c80b24)</text><line x1="70" y1="388" x2="94" y2="388" stroke="#2563eb" stroke-width="3" /><text x="102" y="392" font-family="Arial, sans-serif" font-size="12" fill="#1f2937">Avg build time (ms)</text><line x1="280" y1="388" x2="304" y2="388" stroke="#f59e0b" stroke-width="3" /><text x="312" y="392" font-family="Arial, sans-serif" font-size="12" fill="#1f2937">Avg rasterizer time (ms)</text></svg>