<svg xmlns="http://www.w3.org/2000/svg" width="960" height="420" viewBox="0 0 960 420"><rect width="100%" height="100%" fill="#ffffff" /><text x="70" y="28" font-family="Arial, sans-serif" font-size="20" font-weight="600" fill="#111827">Kalender Performance Trend (Last 50 Runs)</text><line x1="70" y1="340.0" x2="930" y2="340.0" stroke="#e5e7eb" stroke-width="1" /><text x="60" y="344.0" text-anchor="end" font-family="Arial, sans-serif" font-size="11" fill="#6b7280">3.86ms</text><line x1="70" y1="282.0" x2="930" y2="282.0" stroke="#e5e7eb" stroke-width="1" /><text x="60" y="286.0" text-anchor="end" font-family="Arial, sans-serif" font-size="11" fill="#6b7280">4.65ms</text><line x1="70" y1="224.0" x2="930" y2="224.0" stroke="#e5e7eb" stroke-width="1" /><text x="60" y="228.0" text-anchor="end" font-family="Arial, sans-serif" font-size="11" fill="#6b7280">5.45ms</text><line x1="70" y1="166.0" x2="930" y2="166.0" stroke="#e5e7eb" stroke-width="1" /><text x="60" y="170.0" text-anchor="end" font-family="Arial, sans-serif" font-size="11" fill="#6b7280">6.25ms</text><line x1="70" y1="108.0" x2="930" y2="108.0" stroke="#e5e7eb" stroke-width="1" /><text x="60" y="112.0" text-anchor="end" font-family="Arial, sans-serif" font-size="11" fill="#6b7280">7.05ms</text><line x1="70" y1="50.0" x2="930" y2="50.0" stroke="#e5e7eb" stroke-width="1" /><text x="60" y="54.0" text-anchor="end" font-family="Arial, sans-serif" font-size="11" fill="#6b7280">7.84ms</text><line x1="70" y1="340" x2="930" y2="340" stroke="#9ca3af" stroke-width="1.5" /><line x1="70" y1="50" x2="70" y2="340" stroke="#9ca3af" stroke-width="1.5" /><polyline points="70.0,298.2 109.1,305.3 148.2,311.9 187.3,283.0 226.4,307.6 265.5,297.9 304.5,307.5 343.6,298.0 382.7,287.5 421.8,302.3 460.9,307.8 500.0,281.5 539.1,281.9 578.2,307.2 617.3,276.0 656.4,270.2 695.5,280.8 734.5,259.9 773.6,291.3 812.7,307.5 851.8,286.5 890.9,283.7 930.0,298.0" fill="none" stroke="#2563eb" stroke-width="2.5" stroke-linecap="round" stroke-linejoin="round" /><circle cx="70.0" cy="298.2" r="2.8" fill="#2563eb" /><circle cx="109.1" cy="305.3" r="2.8" fill="#2563eb" /><circle cx="148.2" cy="311.9" r="2.8" fill="#2563eb" /><circle cx="187.3" cy="283.0" r="2.8" fill="#2563eb" /><circle cx="226.4" cy="307.6" r="2.8" fill="#2563eb" /><circle cx="265.5" cy="297.9" r="2.8" fill="#2563eb" /><circle cx="304.5" cy="307.5" r="2.8" fill="#2563eb" /><circle cx="343.6" cy="298.0" r="2.8" fill="#2563eb" /><circle cx="382.7" cy="287.5" r="2.8" fill="#2563eb" /><circle cx="421.8" cy="302.3" r="2.8" fill="#2563eb" /><circle cx="460.9" cy="307.8" r="2.8" fill="#2563eb" /><circle cx="500.0" cy="281.5" r="2.8" fill="#2563eb" /><circle cx="539.1" cy="281.9" r="2.8" fill="#2563eb" /><circle cx="578.2" cy="307.2" r="2.8" fill="#2563eb" /><circle cx="617.3" cy="276.0" r="2.8" fill="#2563eb" /><circle cx="656.4" cy="270.2" r="2.8" fill="#2563eb" /><circle cx="695.5" cy="280.8" r="2.8" fill="#2563eb" /><circle cx="734.5" cy="259.9" r="2.8" fill="#2563eb" /><circle cx="773.6" cy="291.3" r="2.8" fill="#2563eb" /><circle cx="812.7" cy="307.5" r="2.8" fill="#2563eb" /><circle cx="851.8" cy="286.5" r="2.8" fill="#2563eb" /><circle cx="890.9" cy="283.7" r="2.8" fill="#2563eb" /><circle cx="930.0" cy="298.0" r="2.8" fill="#2563eb" /><polyline points="70.0,123.8 109.1,123.0 148.2,103.3 187.3,94.3 226.4,124.0 265.5,114.8 304.5,121.1 343.6,106.3 382.7,98.9 421.8,121.5 460.9,131.9 500.0,115.3 539.1,103.1 578.2,78.1 617.3,101.7 656.4,87.1 695.5,113.5 734.5,86.7 773.6,120.6 812.7,113.3 851.8,130.8 890.9,108.3 930.0,132.2" fill="none" stroke="#f59e0b" stroke-width="2.5" stroke-linecap="round" stroke-linejoin="round" /><circle cx="70.0" cy="123.8" r="2.8" fill="#f59e0b" /><circle cx="109.1" cy="123.0" r="2.8" fill="#f59e0b" /><circle cx="148.2" cy="103.3" r="2.8" fill="#f59e0b" /><circle cx="187.3" cy="94.3" r="2.8" fill="#f59e0b" /><circle cx="226.4" cy="124.0" r="2.8" fill="#f59e0b" /><circle cx="265.5" cy="114.8" r="2.8" fill="#f59e0b" /><circle cx="304.5" cy="121.1" r="2.8" fill="#f59e0b" /><circle cx="343.6" cy="106.3" r="2.8" fill="#f59e0b" /><circle cx="382.7" cy="98.9" r="2.8" fill="#f59e0b" /><circle cx="421.8" cy="121.5" r="2.8" fill="#f59e0b" /><circle cx="460.9" cy="131.9" r="2.8" fill="#f59e0b" /><circle cx="500.0" cy="115.3" r="2.8" fill="#f59e0b" /><circle cx="539.1" cy="103.1" r="2.8" fill="#f59e0b" /><circle cx="578.2" cy="78.1" r="2.8" fill="#f59e0b" /><circle cx="617.3" cy="101.7" r="2.8" fill="#f59e0b" /><circle cx="656.4" cy="87.1" r="2.8" fill="#f59e0b" /><circle cx="695.5" cy="113.5" r="2.8" fill="#f59e0b" /><circle cx="734.5" cy="86.7" r="2.8" fill="#f59e0b" /><circle cx="773.6" cy="120.6" r="2.8" fill="#f59e0b" /><circle cx="812.7" cy="113.3" r="2.8" fill="#f59e0b" /><circle cx="851.8" cy="130.8" r="2.8" fill="#f59e0b" /><circle cx="890.9" cy="108.3" r="2.8" fill="#f59e0b" /><circle cx="930.0" cy="132.2" r="2.8" fill="#f59e0b" /><text x="70.0" y="360" text-anchor="middle" font-family="Arial, sans-serif" font-size="10" fill="#6b7280">#226 (2c6afc3)</text><text x="187.3" y="360" text-anchor="middle" font-family="Arial, sans-serif" font-size="10" fill="#6b7280">#229 (8b5e7ea)</text><text x="304.5" y="360" text-anchor="middle" font-family="Arial, sans-serif" font-size="10" fill="#6b7280">#232 (08a5a8a)</text><text x="421.8" y="360" text-anchor="middle" font-family="Arial, sans-serif" font-size="10" fill="#6b7280">#235 (b12564f)</text><text x="539.1" y="360" text-anchor="middle" font-family="Arial, sans-serif" font-size="10" fill="#6b7280">#238 (6e60d14)</text><text x="656.4" y="360" text-anchor="middle" font-family="Arial, sans-serif" font-size="10" fill="#6b7280">#241 (ad053ef)</text><text x="773.6" y="360" text-anchor="middle" font-family="Arial, sans-serif" font-size="10" fill="#6b7280">#244 (6d8b32a)</text><text x="890.9" y="360" text-anchor="middle" font-family="Arial, sans-serif" font-size="10" fill="#6b7280">#247 (2a31adb)</text><text x="930.0" y="360" text-anchor="middle" font-family="Arial, sans-serif" font-size="10" fill="#6b7280">#248 (5eada94)</text><line x1="70" y1="388" x2="94" y2="388" stroke="#2563eb" stroke-width="3" /><text x="102" y="392" font-family="Arial, sans-serif" font-size="12" fill="#1f2937">Avg build time (ms)</text><line x1="280" y1="388" x2="304" y2="388" stroke="#f59e0b" stroke-width="3" /><text x="312" y="392" font-family="Arial, sans-serif" font-size="12" fill="#1f2937">Avg rasterizer time (ms)</text></svg>