<svg xmlns="http://www.w3.org/2000/svg" width="960" height="420" viewBox="0 0 960 420"><rect width="100%" height="100%" fill="#ffffff" /><text x="70" y="28" font-family="Arial, sans-serif" font-size="20" font-weight="600" fill="#111827">Kalender Performance Trend (Last 50 Runs)</text><line x1="70" y1="340.0" x2="930" y2="340.0" stroke="#e5e7eb" stroke-width="1" /><text x="60" y="344.0" text-anchor="end" font-family="Arial, sans-serif" font-size="11" fill="#6b7280">3.37ms</text><line x1="70" y1="282.0" x2="930" y2="282.0" stroke="#e5e7eb" stroke-width="1" /><text x="60" y="286.0" text-anchor="end" font-family="Arial, sans-serif" font-size="11" fill="#6b7280">4.27ms</text><line x1="70" y1="224.0" x2="930" y2="224.0" stroke="#e5e7eb" stroke-width="1" /><text x="60" y="228.0" text-anchor="end" font-family="Arial, sans-serif" font-size="11" fill="#6b7280">5.18ms</text><line x1="70" y1="166.0" x2="930" y2="166.0" stroke="#e5e7eb" stroke-width="1" /><text x="60" y="170.0" text-anchor="end" font-family="Arial, sans-serif" font-size="11" fill="#6b7280">6.09ms</text><line x1="70" y1="108.0" x2="930" y2="108.0" stroke="#e5e7eb" stroke-width="1" /><text x="60" y="112.0" text-anchor="end" font-family="Arial, sans-serif" font-size="11" fill="#6b7280">6.99ms</text><line x1="70" y1="50.0" x2="930" y2="50.0" stroke="#e5e7eb" stroke-width="1" /><text x="60" y="54.0" text-anchor="end" font-family="Arial, sans-serif" font-size="11" fill="#6b7280">7.90ms</text><line x1="70" y1="340" x2="930" y2="340" stroke="#9ca3af" stroke-width="1.5" /><line x1="70" y1="50" x2="70" y2="340" stroke="#9ca3af" stroke-width="1.5" /><polyline points="70.0,271.9 96.9,278.2 123.8,284.0 150.6,258.5 177.5,280.2 204.4,271.6 231.2,280.1 258.1,271.8 285.0,262.5 311.9,275.6 338.8,280.4 365.6,257.2 392.5,257.5 419.4,279.8 446.2,252.4 473.1,247.3 500.0,256.5 526.9,238.2 553.8,265.9 580.6,280.1 607.5,261.6 634.4,259.2 661.2,271.7 688.1,273.0 715.0,282.2 741.9,285.8 768.8,264.0 795.6,247.9 822.5,248.6 849.4,259.5 876.2,275.9 903.1,311.9 930.0,285.1" fill="none" stroke="#2563eb" stroke-width="2.5" stroke-linecap="round" stroke-linejoin="round" /><circle cx="70.0" cy="271.9" r="2.8" fill="#2563eb" /><circle cx="96.9" cy="278.2" r="2.8" fill="#2563eb" /><circle cx="123.8" cy="284.0" r="2.8" fill="#2563eb" /><circle cx="150.6" cy="258.5" r="2.8" fill="#2563eb" /><circle cx="177.5" cy="280.2" r="2.8" fill="#2563eb" /><circle cx="204.4" cy="271.6" r="2.8" fill="#2563eb" /><circle cx="231.2" cy="280.1" r="2.8" fill="#2563eb" /><circle cx="258.1" cy="271.8" r="2.8" fill="#2563eb" /><circle cx="285.0" cy="262.5" r="2.8" fill="#2563eb" /><circle cx="311.9" cy="275.6" r="2.8" fill="#2563eb" /><circle cx="338.8" cy="280.4" r="2.8" fill="#2563eb" /><circle cx="365.6" cy="257.2" r="2.8" fill="#2563eb" /><circle cx="392.5" cy="257.5" r="2.8" fill="#2563eb" /><circle cx="419.4" cy="279.8" r="2.8" fill="#2563eb" /><circle cx="446.2" cy="252.4" r="2.8" fill="#2563eb" /><circle cx="473.1" cy="247.3" r="2.8" fill="#2563eb" /><circle cx="500.0" cy="256.5" r="2.8" fill="#2563eb" /><circle cx="526.9" cy="238.2" r="2.8" fill="#2563eb" /><circle cx="553.8" cy="265.9" r="2.8" fill="#2563eb" /><circle cx="580.6" cy="280.1" r="2.8" fill="#2563eb" /><circle cx="607.5" cy="261.6" r="2.8" fill="#2563eb" /><circle cx="634.4" cy="259.2" r="2.8" fill="#2563eb" /><circle cx="661.2" cy="271.7" r="2.8" fill="#2563eb" /><circle cx="688.1" cy="273.0" r="2.8" fill="#2563eb" /><circle cx="715.0" cy="282.2" r="2.8" fill="#2563eb" /><circle cx="741.9" cy="285.8" r="2.8" fill="#2563eb" /><circle cx="768.8" cy="264.0" r="2.8" fill="#2563eb" /><circle cx="795.6" cy="247.9" r="2.8" fill="#2563eb" /><circle cx="822.5" cy="248.6" r="2.8" fill="#2563eb" /><circle cx="849.4" cy="259.5" r="2.8" fill="#2563eb" /><circle cx="876.2" cy="275.9" r="2.8" fill="#2563eb" /><circle cx="903.1" cy="311.9" r="2.8" fill="#2563eb" /><circle cx="930.0" cy="285.1" r="2.8" fill="#2563eb" /><polyline points="70.0,118.3 96.9,117.6 123.8,100.3 150.6,92.4 177.5,118.5 204.4,110.4 231.2,115.9 258.1,102.9 285.0,96.4 311.9,116.3 338.8,125.5 365.6,110.8 392.5,100.1 419.4,78.1 446.2,98.9 473.1,86.0 500.0,109.3 526.9,85.7 553.8,115.6 580.6,109.1 607.5,124.5 634.4,104.7 661.2,125.8 688.1,114.5 715.0,98.9 741.9,88.6 768.8,118.3 795.6,104.2 822.5,89.0 849.4,104.1 876.2,118.1 903.1,217.8 930.0,100.1" fill="none" stroke="#f59e0b" stroke-width="2.5" stroke-linecap="round" stroke-linejoin="round" /><circle cx="70.0" cy="118.3" r="2.8" fill="#f59e0b" /><circle cx="96.9" cy="117.6" r="2.8" fill="#f59e0b" /><circle cx="123.8" cy="100.3" r="2.8" fill="#f59e0b" /><circle cx="150.6" cy="92.4" r="2.8" fill="#f59e0b" /><circle cx="177.5" cy="118.5" r="2.8" fill="#f59e0b" /><circle cx="204.4" cy="110.4" r="2.8" fill="#f59e0b" /><circle cx="231.2" cy="115.9" r="2.8" fill="#f59e0b" /><circle cx="258.1" cy="102.9" r="2.8" fill="#f59e0b" /><circle cx="285.0" cy="96.4" r="2.8" fill="#f59e0b" /><circle cx="311.9" cy="116.3" r="2.8" fill="#f59e0b" /><circle cx="338.8" cy="125.5" r="2.8" fill="#f59e0b" /><circle cx="365.6" cy="110.8" r="2.8" fill="#f59e0b" /><circle cx="392.5" cy="100.1" r="2.8" fill="#f59e0b" /><circle cx="419.4" cy="78.1" r="2.8" fill="#f59e0b" /><circle cx="446.2" cy="98.9" r="2.8" fill="#f59e0b" /><circle cx="473.1" cy="86.0" r="2.8" fill="#f59e0b" /><circle cx="500.0" cy="109.3" r="2.8" fill="#f59e0b" /><circle cx="526.9" cy="85.7" r="2.8" fill="#f59e0b" /><circle cx="553.8" cy="115.6" r="2.8" fill="#f59e0b" /><circle cx="580.6" cy="109.1" r="2.8" fill="#f59e0b" /><circle cx="607.5" cy="124.5" r="2.8" fill="#f59e0b" /><circle cx="634.4" cy="104.7" r="2.8" fill="#f59e0b" /><circle cx="661.2" cy="125.8" r="2.8" fill="#f59e0b" /><circle cx="688.1" cy="114.5" r="2.8" fill="#f59e0b" /><circle cx="715.0" cy="98.9" r="2.8" fill="#f59e0b" /><circle cx="741.9" cy="88.6" r="2.8" fill="#f59e0b" /><circle cx="768.8" cy="118.3" r="2.8" fill="#f59e0b" /><circle cx="795.6" cy="104.2" r="2.8" fill="#f59e0b" /><circle cx="822.5" cy="89.0" r="2.8" fill="#f59e0b" /><circle cx="849.4" cy="104.1" r="2.8" fill="#f59e0b" /><circle cx="876.2" cy="118.1" r="2.8" fill="#f59e0b" /><circle cx="903.1" cy="217.8" r="2.8" fill="#f59e0b" /><circle cx="930.0" cy="100.1" r="2.8" fill="#f59e0b" /><text x="70.0" y="360" text-anchor="middle" font-family="Arial, sans-serif" font-size="10" fill="#6b7280">#226 (2c6afc3)</text><text x="204.4" y="360" text-anchor="middle" font-family="Arial, sans-serif" font-size="10" fill="#6b7280">#231 (ee021f0)</text><text x="338.8" y="360" text-anchor="middle" font-family="Arial, sans-serif" font-size="10" fill="#6b7280">#236 (a0f1140)</text><text x="473.1" y="360" text-anchor="middle" font-family="Arial, sans-serif" font-size="10" fill="#6b7280">#241 (ad053ef)</text><text x="607.5" y="360" text-anchor="middle" font-family="Arial, sans-serif" font-size="10" fill="#6b7280">#246 (5ef06dc)</text><text x="741.9" y="360" text-anchor="middle" font-family="Arial, sans-serif" font-size="10" fill="#6b7280">#252 (6af7ca9)</text><text x="876.2" y="360" text-anchor="middle" font-family="Arial, sans-serif" font-size="10" fill="#6b7280">#257 (10f7922)</text><text x="930.0" y="360" text-anchor="middle" font-family="Arial, sans-serif" font-size="10" fill="#6b7280">#259 (993d730)</text><line x1="70" y1="388" x2="94" y2="388" stroke="#2563eb" stroke-width="3" /><text x="102" y="392" font-family="Arial, sans-serif" font-size="12" fill="#1f2937">Avg build time (ms)</text><line x1="280" y1="388" x2="304" y2="388" stroke="#f59e0b" stroke-width="3" /><text x="312" y="392" font-family="Arial, sans-serif" font-size="12" fill="#1f2937">Avg rasterizer time (ms)</text></svg>