<svg xmlns="http://www.w3.org/2000/svg" width="960" height="420" viewBox="0 0 960 420"><rect width="100%" height="100%" fill="#ffffff" /><text x="70" y="28" font-family="Arial, sans-serif" font-size="20" font-weight="600" fill="#111827">Kalender Performance Trend (Last 50 Runs)</text><line x1="70" y1="340.0" x2="930" y2="340.0" stroke="#e5e7eb" stroke-width="1" /><text x="60" y="344.0" text-anchor="end" font-family="Arial, sans-serif" font-size="11" fill="#6b7280">3.86ms</text><line x1="70" y1="282.0" x2="930" y2="282.0" stroke="#e5e7eb" stroke-width="1" /><text x="60" y="286.0" text-anchor="end" font-family="Arial, sans-serif" font-size="11" fill="#6b7280">4.65ms</text><line x1="70" y1="224.0" x2="930" y2="224.0" stroke="#e5e7eb" stroke-width="1" /><text x="60" y="228.0" text-anchor="end" font-family="Arial, sans-serif" font-size="11" fill="#6b7280">5.45ms</text><line x1="70" y1="166.0" x2="930" y2="166.0" stroke="#e5e7eb" stroke-width="1" /><text x="60" y="170.0" text-anchor="end" font-family="Arial, sans-serif" font-size="11" fill="#6b7280">6.25ms</text><line x1="70" y1="108.0" x2="930" y2="108.0" stroke="#e5e7eb" stroke-width="1" /><text x="60" y="112.0" text-anchor="end" font-family="Arial, sans-serif" font-size="11" fill="#6b7280">7.05ms</text><line x1="70" y1="50.0" x2="930" y2="50.0" stroke="#e5e7eb" stroke-width="1" /><text x="60" y="54.0" text-anchor="end" font-family="Arial, sans-serif" font-size="11" fill="#6b7280">7.84ms</text><line x1="70" y1="340" x2="930" y2="340" stroke="#9ca3af" stroke-width="1.5" /><line x1="70" y1="50" x2="70" y2="340" stroke="#9ca3af" stroke-width="1.5" /><polyline points="70.0,298.2 127.3,305.3 184.7,311.9 242.0,283.0 299.3,307.6 356.7,297.9 414.0,307.5 471.3,298.0 528.7,287.5 586.0,302.3 643.3,307.8 700.7,281.5 758.0,281.9 815.3,307.2 872.7,276.0 930.0,270.2" fill="none" stroke="#2563eb" stroke-width="2.5" stroke-linecap="round" stroke-linejoin="round" /><circle cx="70.0" cy="298.2" r="2.8" fill="#2563eb" /><circle cx="127.3" cy="305.3" r="2.8" fill="#2563eb" /><circle cx="184.7" cy="311.9" r="2.8" fill="#2563eb" /><circle cx="242.0" cy="283.0" r="2.8" fill="#2563eb" /><circle cx="299.3" cy="307.6" r="2.8" fill="#2563eb" /><circle cx="356.7" cy="297.9" r="2.8" fill="#2563eb" /><circle cx="414.0" cy="307.5" r="2.8" fill="#2563eb" /><circle cx="471.3" cy="298.0" r="2.8" fill="#2563eb" /><circle cx="528.7" cy="287.5" r="2.8" fill="#2563eb" /><circle cx="586.0" cy="302.3" r="2.8" fill="#2563eb" /><circle cx="643.3" cy="307.8" r="2.8" fill="#2563eb" /><circle cx="700.7" cy="281.5" r="2.8" fill="#2563eb" /><circle cx="758.0" cy="281.9" r="2.8" fill="#2563eb" /><circle cx="815.3" cy="307.2" r="2.8" fill="#2563eb" /><circle cx="872.7" cy="276.0" r="2.8" fill="#2563eb" /><circle cx="930.0" cy="270.2" r="2.8" fill="#2563eb" /><polyline points="70.0,123.8 127.3,123.0 184.7,103.3 242.0,94.3 299.3,124.0 356.7,114.8 414.0,121.1 471.3,106.3 528.7,98.9 586.0,121.5 643.3,131.9 700.7,115.3 758.0,103.1 815.3,78.1 872.7,101.7 930.0,87.1" fill="none" stroke="#f59e0b" stroke-width="2.5" stroke-linecap="round" stroke-linejoin="round" /><circle cx="70.0" cy="123.8" r="2.8" fill="#f59e0b" /><circle cx="127.3" cy="123.0" r="2.8" fill="#f59e0b" /><circle cx="184.7" cy="103.3" r="2.8" fill="#f59e0b" /><circle cx="242.0" cy="94.3" r="2.8" fill="#f59e0b" /><circle cx="299.3" cy="124.0" r="2.8" fill="#f59e0b" /><circle cx="356.7" cy="114.8" r="2.8" fill="#f59e0b" /><circle cx="414.0" cy="121.1" r="2.8" fill="#f59e0b" /><circle cx="471.3" cy="106.3" r="2.8" fill="#f59e0b" /><circle cx="528.7" cy="98.9" r="2.8" fill="#f59e0b" /><circle cx="586.0" cy="121.5" r="2.8" fill="#f59e0b" /><circle cx="643.3" cy="131.9" r="2.8" fill="#f59e0b" /><circle cx="700.7" cy="115.3" r="2.8" fill="#f59e0b" /><circle cx="758.0" cy="103.1" r="2.8" fill="#f59e0b" /><circle cx="815.3" cy="78.1" r="2.8" fill="#f59e0b" /><circle cx="872.7" cy="101.7" r="2.8" fill="#f59e0b" /><circle cx="930.0" cy="87.1" r="2.8" fill="#f59e0b" /><text x="70.0" y="360" text-anchor="middle" font-family="Arial, sans-serif" font-size="10" fill="#6b7280">#226 (2c6afc3)</text><text x="184.7" y="360" text-anchor="middle" font-family="Arial, sans-serif" font-size="10" fill="#6b7280">#228 (c60fbd2)</text><text x="299.3" y="360" text-anchor="middle" font-family="Arial, sans-serif" font-size="10" fill="#6b7280">#230 (ef578cb)</text><text x="414.0" y="360" text-anchor="middle" font-family="Arial, sans-serif" font-size="10" fill="#6b7280">#232 (08a5a8a)</text><text x="528.7" y="360" text-anchor="middle" font-family="Arial, sans-serif" font-size="10" fill="#6b7280">#234 (c5cb6ad)</text><text x="643.3" y="360" text-anchor="middle" font-family="Arial, sans-serif" font-size="10" fill="#6b7280">#236 (a0f1140)</text><text x="758.0" y="360" text-anchor="middle" font-family="Arial, sans-serif" font-size="10" fill="#6b7280">#238 (6e60d14)</text><text x="872.7" y="360" text-anchor="middle" font-family="Arial, sans-serif" font-size="10" fill="#6b7280">#240 (4a8f570)</text><text x="930.0" y="360" text-anchor="middle" font-family="Arial, sans-serif" font-size="10" fill="#6b7280">#241 (ad053ef)</text><line x1="70" y1="388" x2="94" y2="388" stroke="#2563eb" stroke-width="3" /><text x="102" y="392" font-family="Arial, sans-serif" font-size="12" fill="#1f2937">Avg build time (ms)</text><line x1="280" y1="388" x2="304" y2="388" stroke="#f59e0b" stroke-width="3" /><text x="312" y="392" font-family="Arial, sans-serif" font-size="12" fill="#1f2937">Avg rasterizer time (ms)</text></svg>