<svg xmlns="http://www.w3.org/2000/svg" width="960" height="420" viewBox="0 0 960 420"><rect width="100%" height="100%" fill="#ffffff" /><text x="70" y="28" font-family="Arial, sans-serif" font-size="20" font-weight="600" fill="#111827">Kalender Performance Trend (Last 50 Runs)</text><line x1="70" y1="340.0" x2="930" y2="340.0" stroke="#e5e7eb" stroke-width="1" /><text x="60" y="344.0" text-anchor="end" font-family="Arial, sans-serif" font-size="11" fill="#6b7280">3.88ms</text><line x1="70" y1="282.0" x2="930" y2="282.0" stroke="#e5e7eb" stroke-width="1" /><text x="60" y="286.0" text-anchor="end" font-family="Arial, sans-serif" font-size="11" fill="#6b7280">4.63ms</text><line x1="70" y1="224.0" x2="930" y2="224.0" stroke="#e5e7eb" stroke-width="1" /><text x="60" y="228.0" text-anchor="end" font-family="Arial, sans-serif" font-size="11" fill="#6b7280">5.37ms</text><line x1="70" y1="166.0" x2="930" y2="166.0" stroke="#e5e7eb" stroke-width="1" /><text x="60" y="170.0" text-anchor="end" font-family="Arial, sans-serif" font-size="11" fill="#6b7280">6.11ms</text><line x1="70" y1="108.0" x2="930" y2="108.0" stroke="#e5e7eb" stroke-width="1" /><text x="60" y="112.0" text-anchor="end" font-family="Arial, sans-serif" font-size="11" fill="#6b7280">6.85ms</text><line x1="70" y1="50.0" x2="930" y2="50.0" stroke="#e5e7eb" stroke-width="1" /><text x="60" y="54.0" text-anchor="end" font-family="Arial, sans-serif" font-size="11" fill="#6b7280">7.59ms</text><line x1="70" y1="340" x2="930" y2="340" stroke="#9ca3af" stroke-width="1.5" /><line x1="70" y1="50" x2="70" y2="340" stroke="#9ca3af" stroke-width="1.5" /><polyline points="70.0,297.2 165.6,304.8 261.1,311.9 356.7,280.8 452.2,307.3 547.8,296.8 643.3,307.2 738.9,297.0 834.4,285.7 930.0,301.6" fill="none" stroke="#2563eb" stroke-width="2.5" stroke-linecap="round" stroke-linejoin="round" /><circle cx="70.0" cy="297.2" r="2.8" fill="#2563eb" /><circle cx="165.6" cy="304.8" r="2.8" fill="#2563eb" /><circle cx="261.1" cy="311.9" r="2.8" fill="#2563eb" /><circle cx="356.7" cy="280.8" r="2.8" fill="#2563eb" /><circle cx="452.2" cy="307.3" r="2.8" fill="#2563eb" /><circle cx="547.8" cy="296.8" r="2.8" fill="#2563eb" /><circle cx="643.3" cy="307.2" r="2.8" fill="#2563eb" /><circle cx="738.9" cy="297.0" r="2.8" fill="#2563eb" /><circle cx="834.4" cy="285.7" r="2.8" fill="#2563eb" /><circle cx="930.0" cy="301.6" r="2.8" fill="#2563eb" /><polyline points="70.0,109.7 165.6,108.9 261.1,87.7 356.7,78.1 452.2,109.9 547.8,100.1 643.3,106.8 738.9,90.9 834.4,82.9 930.0,107.3" fill="none" stroke="#f59e0b" stroke-width="2.5" stroke-linecap="round" stroke-linejoin="round" /><circle cx="70.0" cy="109.7" r="2.8" fill="#f59e0b" /><circle cx="165.6" cy="108.9" r="2.8" fill="#f59e0b" /><circle cx="261.1" cy="87.7" r="2.8" fill="#f59e0b" /><circle cx="356.7" cy="78.1" r="2.8" fill="#f59e0b" /><circle cx="452.2" cy="109.9" r="2.8" fill="#f59e0b" /><circle cx="547.8" cy="100.1" r="2.8" fill="#f59e0b" /><circle cx="643.3" cy="106.8" r="2.8" fill="#f59e0b" /><circle cx="738.9" cy="90.9" r="2.8" fill="#f59e0b" /><circle cx="834.4" cy="82.9" r="2.8" fill="#f59e0b" /><circle cx="930.0" cy="107.3" r="2.8" fill="#f59e0b" /><text x="70.0" y="360" text-anchor="middle" font-family="Arial, sans-serif" font-size="10" fill="#6b7280">#226 (2c6afc3)</text><text x="165.6" y="360" text-anchor="middle" font-family="Arial, sans-serif" font-size="10" fill="#6b7280">#227 (fb157bf)</text><text x="261.1" y="360" text-anchor="middle" font-family="Arial, sans-serif" font-size="10" fill="#6b7280">#228 (c60fbd2)</text><text x="356.7" y="360" text-anchor="middle" font-family="Arial, sans-serif" font-size="10" fill="#6b7280">#229 (8b5e7ea)</text><text x="452.2" y="360" text-anchor="middle" font-family="Arial, sans-serif" font-size="10" fill="#6b7280">#230 (ef578cb)</text><text x="547.8" y="360" text-anchor="middle" font-family="Arial, sans-serif" font-size="10" fill="#6b7280">#231 (ee021f0)</text><text x="643.3" y="360" text-anchor="middle" font-family="Arial, sans-serif" font-size="10" fill="#6b7280">#232 (08a5a8a)</text><text x="738.9" y="360" text-anchor="middle" font-family="Arial, sans-serif" font-size="10" fill="#6b7280">#233 (d78631b)</text><text x="834.4" y="360" text-anchor="middle" font-family="Arial, sans-serif" font-size="10" fill="#6b7280">#234 (c5cb6ad)</text><text x="930.0" y="360" text-anchor="middle" font-family="Arial, sans-serif" font-size="10" fill="#6b7280">#235 (b12564f)</text><line x1="70" y1="388" x2="94" y2="388" stroke="#2563eb" stroke-width="3" /><text x="102" y="392" font-family="Arial, sans-serif" font-size="12" fill="#1f2937">Avg build time (ms)</text><line x1="280" y1="388" x2="304" y2="388" stroke="#f59e0b" stroke-width="3" /><text x="312" y="392" font-family="Arial, sans-serif" font-size="12" fill="#1f2937">Avg rasterizer time (ms)</text></svg>