<svg xmlns="http://www.w3.org/2000/svg" width="960" height="420" viewBox="0 0 960 420"><rect width="100%" height="100%" fill="#ffffff" /><text x="70" y="28" font-family="Arial, sans-serif" font-size="20" font-weight="600" fill="#111827">Kalender Performance Trend (Last 50 Runs)</text><line x1="70" y1="340.0" x2="930" y2="340.0" stroke="#e5e7eb" stroke-width="1" /><text x="60" y="344.0" text-anchor="end" font-family="Arial, sans-serif" font-size="11" fill="#6b7280">3.86ms</text><line x1="70" y1="282.0" x2="930" y2="282.0" stroke="#e5e7eb" stroke-width="1" /><text x="60" y="286.0" text-anchor="end" font-family="Arial, sans-serif" font-size="11" fill="#6b7280">4.65ms</text><line x1="70" y1="224.0" x2="930" y2="224.0" stroke="#e5e7eb" stroke-width="1" /><text x="60" y="228.0" text-anchor="end" font-family="Arial, sans-serif" font-size="11" fill="#6b7280">5.45ms</text><line x1="70" y1="166.0" x2="930" y2="166.0" stroke="#e5e7eb" stroke-width="1" /><text x="60" y="170.0" text-anchor="end" font-family="Arial, sans-serif" font-size="11" fill="#6b7280">6.25ms</text><line x1="70" y1="108.0" x2="930" y2="108.0" stroke="#e5e7eb" stroke-width="1" /><text x="60" y="112.0" text-anchor="end" font-family="Arial, sans-serif" font-size="11" fill="#6b7280">7.05ms</text><line x1="70" y1="50.0" x2="930" y2="50.0" stroke="#e5e7eb" stroke-width="1" /><text x="60" y="54.0" text-anchor="end" font-family="Arial, sans-serif" font-size="11" fill="#6b7280">7.84ms</text><line x1="70" y1="340" x2="930" y2="340" stroke="#9ca3af" stroke-width="1.5" /><line x1="70" y1="50" x2="70" y2="340" stroke="#9ca3af" stroke-width="1.5" /><polyline points="70.0,298.2 105.8,305.3 141.7,311.9 177.5,283.0 213.3,307.6 249.2,297.9 285.0,307.5 320.8,298.0 356.7,287.5 392.5,302.3 428.3,307.8 464.2,281.5 500.0,281.9 535.8,307.2 571.7,276.0 607.5,270.2 643.3,280.8 679.2,259.9 715.0,291.3 750.8,307.5 786.7,286.5 822.5,283.7 858.3,298.0 894.2,299.4 930.0,309.8" fill="none" stroke="#2563eb" stroke-width="2.5" stroke-linecap="round" stroke-linejoin="round" /><circle cx="70.0" cy="298.2" r="2.8" fill="#2563eb" /><circle cx="105.8" cy="305.3" r="2.8" fill="#2563eb" /><circle cx="141.7" cy="311.9" r="2.8" fill="#2563eb" /><circle cx="177.5" cy="283.0" r="2.8" fill="#2563eb" /><circle cx="213.3" cy="307.6" r="2.8" fill="#2563eb" /><circle cx="249.2" cy="297.9" r="2.8" fill="#2563eb" /><circle cx="285.0" cy="307.5" r="2.8" fill="#2563eb" /><circle cx="320.8" cy="298.0" r="2.8" fill="#2563eb" /><circle cx="356.7" cy="287.5" r="2.8" fill="#2563eb" /><circle cx="392.5" cy="302.3" r="2.8" fill="#2563eb" /><circle cx="428.3" cy="307.8" r="2.8" fill="#2563eb" /><circle cx="464.2" cy="281.5" r="2.8" fill="#2563eb" /><circle cx="500.0" cy="281.9" r="2.8" fill="#2563eb" /><circle cx="535.8" cy="307.2" r="2.8" fill="#2563eb" /><circle cx="571.7" cy="276.0" r="2.8" fill="#2563eb" /><circle cx="607.5" cy="270.2" r="2.8" fill="#2563eb" /><circle cx="643.3" cy="280.8" r="2.8" fill="#2563eb" /><circle cx="679.2" cy="259.9" r="2.8" fill="#2563eb" /><circle cx="715.0" cy="291.3" r="2.8" fill="#2563eb" /><circle cx="750.8" cy="307.5" r="2.8" fill="#2563eb" /><circle cx="786.7" cy="286.5" r="2.8" fill="#2563eb" /><circle cx="822.5" cy="283.7" r="2.8" fill="#2563eb" /><circle cx="858.3" cy="298.0" r="2.8" fill="#2563eb" /><circle cx="894.2" cy="299.4" r="2.8" fill="#2563eb" /><circle cx="930.0" cy="309.8" r="2.8" fill="#2563eb" /><polyline points="70.0,123.8 105.8,123.0 141.7,103.3 177.5,94.3 213.3,124.0 249.2,114.8 285.0,121.1 320.8,106.3 356.7,98.9 392.5,121.5 428.3,131.9 464.2,115.3 500.0,103.1 535.8,78.1 571.7,101.7 607.5,87.1 643.3,113.5 679.2,86.7 715.0,120.6 750.8,113.3 786.7,130.8 822.5,108.3 858.3,132.2 894.2,119.5 930.0,101.7" fill="none" stroke="#f59e0b" stroke-width="2.5" stroke-linecap="round" stroke-linejoin="round" /><circle cx="70.0" cy="123.8" r="2.8" fill="#f59e0b" /><circle cx="105.8" cy="123.0" r="2.8" fill="#f59e0b" /><circle cx="141.7" cy="103.3" r="2.8" fill="#f59e0b" /><circle cx="177.5" cy="94.3" r="2.8" fill="#f59e0b" /><circle cx="213.3" cy="124.0" r="2.8" fill="#f59e0b" /><circle cx="249.2" cy="114.8" r="2.8" fill="#f59e0b" /><circle cx="285.0" cy="121.1" r="2.8" fill="#f59e0b" /><circle cx="320.8" cy="106.3" r="2.8" fill="#f59e0b" /><circle cx="356.7" cy="98.9" r="2.8" fill="#f59e0b" /><circle cx="392.5" cy="121.5" r="2.8" fill="#f59e0b" /><circle cx="428.3" cy="131.9" r="2.8" fill="#f59e0b" /><circle cx="464.2" cy="115.3" r="2.8" fill="#f59e0b" /><circle cx="500.0" cy="103.1" r="2.8" fill="#f59e0b" /><circle cx="535.8" cy="78.1" r="2.8" fill="#f59e0b" /><circle cx="571.7" cy="101.7" r="2.8" fill="#f59e0b" /><circle cx="607.5" cy="87.1" r="2.8" fill="#f59e0b" /><circle cx="643.3" cy="113.5" r="2.8" fill="#f59e0b" /><circle cx="679.2" cy="86.7" r="2.8" fill="#f59e0b" /><circle cx="715.0" cy="120.6" r="2.8" fill="#f59e0b" /><circle cx="750.8" cy="113.3" r="2.8" fill="#f59e0b" /><circle cx="786.7" cy="130.8" r="2.8" fill="#f59e0b" /><circle cx="822.5" cy="108.3" r="2.8" fill="#f59e0b" /><circle cx="858.3" cy="132.2" r="2.8" fill="#f59e0b" /><circle cx="894.2" cy="119.5" r="2.8" fill="#f59e0b" /><circle cx="930.0" cy="101.7" r="2.8" fill="#f59e0b" /><text x="70.0" y="360" text-anchor="middle" font-family="Arial, sans-serif" font-size="10" fill="#6b7280">#226 (2c6afc3)</text><text x="213.3" y="360" text-anchor="middle" font-family="Arial, sans-serif" font-size="10" fill="#6b7280">#230 (ef578cb)</text><text x="356.7" y="360" text-anchor="middle" font-family="Arial, sans-serif" font-size="10" fill="#6b7280">#234 (c5cb6ad)</text><text x="500.0" y="360" text-anchor="middle" font-family="Arial, sans-serif" font-size="10" fill="#6b7280">#238 (6e60d14)</text><text x="643.3" y="360" text-anchor="middle" font-family="Arial, sans-serif" font-size="10" fill="#6b7280">#242 (aa0ffac)</text><text x="786.7" y="360" text-anchor="middle" font-family="Arial, sans-serif" font-size="10" fill="#6b7280">#246 (5ef06dc)</text><text x="930.0" y="360" text-anchor="middle" font-family="Arial, sans-serif" font-size="10" fill="#6b7280">#251 (43970d4)</text><line x1="70" y1="388" x2="94" y2="388" stroke="#2563eb" stroke-width="3" /><text x="102" y="392" font-family="Arial, sans-serif" font-size="12" fill="#1f2937">Avg build time (ms)</text><line x1="280" y1="388" x2="304" y2="388" stroke="#f59e0b" stroke-width="3" /><text x="312" y="392" font-family="Arial, sans-serif" font-size="12" fill="#1f2937">Avg rasterizer time (ms)</text></svg>