<svg xmlns="http://www.w3.org/2000/svg" width="960" height="420" viewBox="0 0 960 420"><rect width="100%" height="100%" fill="#ffffff" /><text x="70" y="28" font-family="Arial, sans-serif" font-size="20" font-weight="600" fill="#111827">Kalender Performance Trend (Last 50 Runs)</text><line x1="70" y1="340.0" x2="930" y2="340.0" stroke="#e5e7eb" stroke-width="1" /><text x="60" y="344.0" text-anchor="end" font-family="Arial, sans-serif" font-size="11" fill="#6b7280">3.83ms</text><line x1="70" y1="282.0" x2="930" y2="282.0" stroke="#e5e7eb" stroke-width="1" /><text x="60" y="286.0" text-anchor="end" font-family="Arial, sans-serif" font-size="11" fill="#6b7280">4.63ms</text><line x1="70" y1="224.0" x2="930" y2="224.0" stroke="#e5e7eb" stroke-width="1" /><text x="60" y="228.0" text-anchor="end" font-family="Arial, sans-serif" font-size="11" fill="#6b7280">5.43ms</text><line x1="70" y1="166.0" x2="930" y2="166.0" stroke="#e5e7eb" stroke-width="1" /><text x="60" y="170.0" text-anchor="end" font-family="Arial, sans-serif" font-size="11" fill="#6b7280">6.24ms</text><line x1="70" y1="108.0" x2="930" y2="108.0" stroke="#e5e7eb" stroke-width="1" /><text x="60" y="112.0" text-anchor="end" font-family="Arial, sans-serif" font-size="11" fill="#6b7280">7.04ms</text><line x1="70" y1="50.0" x2="930" y2="50.0" stroke="#e5e7eb" stroke-width="1" /><text x="60" y="54.0" text-anchor="end" font-family="Arial, sans-serif" font-size="11" fill="#6b7280">7.85ms</text><line x1="70" y1="340" x2="930" y2="340" stroke="#9ca3af" stroke-width="1.5" /><line x1="70" y1="50" x2="70" y2="340" stroke="#9ca3af" stroke-width="1.5" /><polyline points="70.0,296.3 101.9,303.4 133.7,310.0 165.6,281.3 197.4,305.7 229.3,296.0 261.1,305.6 293.0,296.2 324.8,285.8 356.7,300.4 388.5,305.9 420.4,279.8 452.2,280.1 484.1,305.3 515.9,274.4 547.8,268.6 579.6,279.0 611.5,258.4 643.3,289.5 675.2,305.5 707.0,284.7 738.9,282.0 770.7,296.1 802.6,297.6 834.4,307.9 866.3,311.9 898.1,287.4 930.0,269.3" fill="none" stroke="#2563eb" stroke-width="2.5" stroke-linecap="round" stroke-linejoin="round" /><circle cx="70.0" cy="296.3" r="2.8" fill="#2563eb" /><circle cx="101.9" cy="303.4" r="2.8" fill="#2563eb" /><circle cx="133.7" cy="310.0" r="2.8" fill="#2563eb" /><circle cx="165.6" cy="281.3" r="2.8" fill="#2563eb" /><circle cx="197.4" cy="305.7" r="2.8" fill="#2563eb" /><circle cx="229.3" cy="296.0" r="2.8" fill="#2563eb" /><circle cx="261.1" cy="305.6" r="2.8" fill="#2563eb" /><circle cx="293.0" cy="296.2" r="2.8" fill="#2563eb" /><circle cx="324.8" cy="285.8" r="2.8" fill="#2563eb" /><circle cx="356.7" cy="300.4" r="2.8" fill="#2563eb" /><circle cx="388.5" cy="305.9" r="2.8" fill="#2563eb" /><circle cx="420.4" cy="279.8" r="2.8" fill="#2563eb" /><circle cx="452.2" cy="280.1" r="2.8" fill="#2563eb" /><circle cx="484.1" cy="305.3" r="2.8" fill="#2563eb" /><circle cx="515.9" cy="274.4" r="2.8" fill="#2563eb" /><circle cx="547.8" cy="268.6" r="2.8" fill="#2563eb" /><circle cx="579.6" cy="279.0" r="2.8" fill="#2563eb" /><circle cx="611.5" cy="258.4" r="2.8" fill="#2563eb" /><circle cx="643.3" cy="289.5" r="2.8" fill="#2563eb" /><circle cx="675.2" cy="305.5" r="2.8" fill="#2563eb" /><circle cx="707.0" cy="284.7" r="2.8" fill="#2563eb" /><circle cx="738.9" cy="282.0" r="2.8" fill="#2563eb" /><circle cx="770.7" cy="296.1" r="2.8" fill="#2563eb" /><circle cx="802.6" cy="297.6" r="2.8" fill="#2563eb" /><circle cx="834.4" cy="307.9" r="2.8" fill="#2563eb" /><circle cx="866.3" cy="311.9" r="2.8" fill="#2563eb" /><circle cx="898.1" cy="287.4" r="2.8" fill="#2563eb" /><circle cx="930.0" cy="269.3" r="2.8" fill="#2563eb" /><polyline points="70.0,123.4 101.9,122.6 133.7,103.1 165.6,94.2 197.4,123.6 229.3,114.5 261.1,120.7 293.0,106.0 324.8,98.7 356.7,121.2 388.5,131.4 420.4,114.9 452.2,102.9 484.1,78.1 515.9,101.5 547.8,87.0 579.6,113.2 611.5,86.7 643.3,120.3 675.2,113.0 707.0,130.3 738.9,108.1 770.7,131.8 802.6,119.1 834.4,101.5 866.3,89.9 898.1,123.4 930.0,107.4" fill="none" stroke="#f59e0b" stroke-width="2.5" stroke-linecap="round" stroke-linejoin="round" /><circle cx="70.0" cy="123.4" r="2.8" fill="#f59e0b" /><circle cx="101.9" cy="122.6" r="2.8" fill="#f59e0b" /><circle cx="133.7" cy="103.1" r="2.8" fill="#f59e0b" /><circle cx="165.6" cy="94.2" r="2.8" fill="#f59e0b" /><circle cx="197.4" cy="123.6" r="2.8" fill="#f59e0b" /><circle cx="229.3" cy="114.5" r="2.8" fill="#f59e0b" /><circle cx="261.1" cy="120.7" r="2.8" fill="#f59e0b" /><circle cx="293.0" cy="106.0" r="2.8" fill="#f59e0b" /><circle cx="324.8" cy="98.7" r="2.8" fill="#f59e0b" /><circle cx="356.7" cy="121.2" r="2.8" fill="#f59e0b" /><circle cx="388.5" cy="131.4" r="2.8" fill="#f59e0b" /><circle cx="420.4" cy="114.9" r="2.8" fill="#f59e0b" /><circle cx="452.2" cy="102.9" r="2.8" fill="#f59e0b" /><circle cx="484.1" cy="78.1" r="2.8" fill="#f59e0b" /><circle cx="515.9" cy="101.5" r="2.8" fill="#f59e0b" /><circle cx="547.8" cy="87.0" r="2.8" fill="#f59e0b" /><circle cx="579.6" cy="113.2" r="2.8" fill="#f59e0b" /><circle cx="611.5" cy="86.7" r="2.8" fill="#f59e0b" /><circle cx="643.3" cy="120.3" r="2.8" fill="#f59e0b" /><circle cx="675.2" cy="113.0" r="2.8" fill="#f59e0b" /><circle cx="707.0" cy="130.3" r="2.8" fill="#f59e0b" /><circle cx="738.9" cy="108.1" r="2.8" fill="#f59e0b" /><circle cx="770.7" cy="131.8" r="2.8" fill="#f59e0b" /><circle cx="802.6" cy="119.1" r="2.8" fill="#f59e0b" /><circle cx="834.4" cy="101.5" r="2.8" fill="#f59e0b" /><circle cx="866.3" cy="89.9" r="2.8" fill="#f59e0b" /><circle cx="898.1" cy="123.4" r="2.8" fill="#f59e0b" /><circle cx="930.0" cy="107.4" r="2.8" fill="#f59e0b" /><text x="70.0" y="360" text-anchor="middle" font-family="Arial, sans-serif" font-size="10" fill="#6b7280">#226 (2c6afc3)</text><text x="197.4" y="360" text-anchor="middle" font-family="Arial, sans-serif" font-size="10" fill="#6b7280">#230 (ef578cb)</text><text x="324.8" y="360" text-anchor="middle" font-family="Arial, sans-serif" font-size="10" fill="#6b7280">#234 (c5cb6ad)</text><text x="452.2" y="360" text-anchor="middle" font-family="Arial, sans-serif" font-size="10" fill="#6b7280">#238 (6e60d14)</text><text x="579.6" y="360" text-anchor="middle" font-family="Arial, sans-serif" font-size="10" fill="#6b7280">#242 (aa0ffac)</text><text x="707.0" y="360" text-anchor="middle" font-family="Arial, sans-serif" font-size="10" fill="#6b7280">#246 (5ef06dc)</text><text x="834.4" y="360" text-anchor="middle" font-family="Arial, sans-serif" font-size="10" fill="#6b7280">#251 (43970d4)</text><text x="930.0" y="360" text-anchor="middle" font-family="Arial, sans-serif" font-size="10" fill="#6b7280">#254 (fe77acb)</text><line x1="70" y1="388" x2="94" y2="388" stroke="#2563eb" stroke-width="3" /><text x="102" y="392" font-family="Arial, sans-serif" font-size="12" fill="#1f2937">Avg build time (ms)</text><line x1="280" y1="388" x2="304" y2="388" stroke="#f59e0b" stroke-width="3" /><text x="312" y="392" font-family="Arial, sans-serif" font-size="12" fill="#1f2937">Avg rasterizer time (ms)</text></svg>