<svg xmlns="http://www.w3.org/2000/svg" width="960" height="420" viewBox="0 0 960 420"><rect width="100%" height="100%" fill="#ffffff" /><text x="70" y="28" font-family="Arial, sans-serif" font-size="20" font-weight="600" fill="#111827">Kalender Performance Trend (Last 50 Runs)</text><line x1="70" y1="340.0" x2="930" y2="340.0" stroke="#e5e7eb" stroke-width="1" /><text x="60" y="344.0" text-anchor="end" font-family="Arial, sans-serif" font-size="11" fill="#6b7280">3.88ms</text><line x1="70" y1="282.0" x2="930" y2="282.0" stroke="#e5e7eb" stroke-width="1" /><text x="60" y="286.0" text-anchor="end" font-family="Arial, sans-serif" font-size="11" fill="#6b7280">4.63ms</text><line x1="70" y1="224.0" x2="930" y2="224.0" stroke="#e5e7eb" stroke-width="1" /><text x="60" y="228.0" text-anchor="end" font-family="Arial, sans-serif" font-size="11" fill="#6b7280">5.37ms</text><line x1="70" y1="166.0" x2="930" y2="166.0" stroke="#e5e7eb" stroke-width="1" /><text x="60" y="170.0" text-anchor="end" font-family="Arial, sans-serif" font-size="11" fill="#6b7280">6.11ms</text><line x1="70" y1="108.0" x2="930" y2="108.0" stroke="#e5e7eb" stroke-width="1" /><text x="60" y="112.0" text-anchor="end" font-family="Arial, sans-serif" font-size="11" fill="#6b7280">6.85ms</text><line x1="70" y1="50.0" x2="930" y2="50.0" stroke="#e5e7eb" stroke-width="1" /><text x="60" y="54.0" text-anchor="end" font-family="Arial, sans-serif" font-size="11" fill="#6b7280">7.59ms</text><line x1="70" y1="340" x2="930" y2="340" stroke="#9ca3af" stroke-width="1.5" /><line x1="70" y1="50" x2="70" y2="340" stroke="#9ca3af" stroke-width="1.5" /><polyline points="70.0,297.2 148.2,304.8 226.4,311.9 304.5,280.8 382.7,307.3 460.9,296.8 539.1,307.2 617.3,297.0 695.5,285.7 773.6,301.6 851.8,307.5 930.0,279.3" fill="none" stroke="#2563eb" stroke-width="2.5" stroke-linecap="round" stroke-linejoin="round" /><circle cx="70.0" cy="297.2" r="2.8" fill="#2563eb" /><circle cx="148.2" cy="304.8" r="2.8" fill="#2563eb" /><circle cx="226.4" cy="311.9" r="2.8" fill="#2563eb" /><circle cx="304.5" cy="280.8" r="2.8" fill="#2563eb" /><circle cx="382.7" cy="307.3" r="2.8" fill="#2563eb" /><circle cx="460.9" cy="296.8" r="2.8" fill="#2563eb" /><circle cx="539.1" cy="307.2" r="2.8" fill="#2563eb" /><circle cx="617.3" cy="297.0" r="2.8" fill="#2563eb" /><circle cx="695.5" cy="285.7" r="2.8" fill="#2563eb" /><circle cx="773.6" cy="301.6" r="2.8" fill="#2563eb" /><circle cx="851.8" cy="307.5" r="2.8" fill="#2563eb" /><circle cx="930.0" cy="279.3" r="2.8" fill="#2563eb" /><polyline points="70.0,109.7 148.2,108.9 226.4,87.7 304.5,78.1 382.7,109.9 460.9,100.1 539.1,106.8 617.3,90.9 695.5,82.9 773.6,107.3 851.8,118.4 930.0,100.5" fill="none" stroke="#f59e0b" stroke-width="2.5" stroke-linecap="round" stroke-linejoin="round" /><circle cx="70.0" cy="109.7" r="2.8" fill="#f59e0b" /><circle cx="148.2" cy="108.9" r="2.8" fill="#f59e0b" /><circle cx="226.4" cy="87.7" r="2.8" fill="#f59e0b" /><circle cx="304.5" cy="78.1" r="2.8" fill="#f59e0b" /><circle cx="382.7" cy="109.9" r="2.8" fill="#f59e0b" /><circle cx="460.9" cy="100.1" r="2.8" fill="#f59e0b" /><circle cx="539.1" cy="106.8" r="2.8" fill="#f59e0b" /><circle cx="617.3" cy="90.9" r="2.8" fill="#f59e0b" /><circle cx="695.5" cy="82.9" r="2.8" fill="#f59e0b" /><circle cx="773.6" cy="107.3" r="2.8" fill="#f59e0b" /><circle cx="851.8" cy="118.4" r="2.8" fill="#f59e0b" /><circle cx="930.0" cy="100.5" r="2.8" fill="#f59e0b" /><text x="70.0" y="360" text-anchor="middle" font-family="Arial, sans-serif" font-size="10" fill="#6b7280">#226 (2c6afc3)</text><text x="226.4" y="360" text-anchor="middle" font-family="Arial, sans-serif" font-size="10" fill="#6b7280">#228 (c60fbd2)</text><text x="382.7" y="360" text-anchor="middle" font-family="Arial, sans-serif" font-size="10" fill="#6b7280">#230 (ef578cb)</text><text x="539.1" y="360" text-anchor="middle" font-family="Arial, sans-serif" font-size="10" fill="#6b7280">#232 (08a5a8a)</text><text x="695.5" y="360" text-anchor="middle" font-family="Arial, sans-serif" font-size="10" fill="#6b7280">#234 (c5cb6ad)</text><text x="851.8" y="360" text-anchor="middle" font-family="Arial, sans-serif" font-size="10" fill="#6b7280">#236 (a0f1140)</text><text x="930.0" y="360" text-anchor="middle" font-family="Arial, sans-serif" font-size="10" fill="#6b7280">#237 (29b9420)</text><line x1="70" y1="388" x2="94" y2="388" stroke="#2563eb" stroke-width="3" /><text x="102" y="392" font-family="Arial, sans-serif" font-size="12" fill="#1f2937">Avg build time (ms)</text><line x1="280" y1="388" x2="304" y2="388" stroke="#f59e0b" stroke-width="3" /><text x="312" y="392" font-family="Arial, sans-serif" font-size="12" fill="#1f2937">Avg rasterizer time (ms)</text></svg>