<svg xmlns="http://www.w3.org/2000/svg" width="960" height="420" viewBox="0 0 960 420"><rect width="100%" height="100%" fill="#ffffff" /><text x="70" y="28" font-family="Arial, sans-serif" font-size="20" font-weight="600" fill="#111827">Kalender Performance Trend (Last 20 Runs)</text><line x1="70" y1="340.0" x2="930" y2="340.0" stroke="#e5e7eb" stroke-width="1" /><text x="60" y="344.0" text-anchor="end" font-family="Arial, sans-serif" font-size="11" fill="#6b7280">3.90ms</text><line x1="70" y1="282.0" x2="930" y2="282.0" stroke="#e5e7eb" stroke-width="1" /><text x="60" y="286.0" text-anchor="end" font-family="Arial, sans-serif" font-size="11" fill="#6b7280">4.61ms</text><line x1="70" y1="224.0" x2="930" y2="224.0" stroke="#e5e7eb" stroke-width="1" /><text x="60" y="228.0" text-anchor="end" font-family="Arial, sans-serif" font-size="11" fill="#6b7280">5.32ms</text><line x1="70" y1="166.0" x2="930" y2="166.0" stroke="#e5e7eb" stroke-width="1" /><text x="60" y="170.0" text-anchor="end" font-family="Arial, sans-serif" font-size="11" fill="#6b7280">6.03ms</text><line x1="70" y1="108.0" x2="930" y2="108.0" stroke="#e5e7eb" stroke-width="1" /><text x="60" y="112.0" text-anchor="end" font-family="Arial, sans-serif" font-size="11" fill="#6b7280">6.74ms</text><line x1="70" y1="50.0" x2="930" y2="50.0" stroke="#e5e7eb" stroke-width="1" /><text x="60" y="54.0" text-anchor="end" font-family="Arial, sans-serif" font-size="11" fill="#6b7280">7.46ms</text><line x1="70" y1="340" x2="930" y2="340" stroke="#9ca3af" stroke-width="1.5" /><line x1="70" y1="50" x2="70" y2="340" stroke="#9ca3af" stroke-width="1.5" /><polyline points="70.0,296.5 500.0,304.5 930.0,311.9" fill="none" stroke="#2563eb" stroke-width="2.5" stroke-linecap="round" stroke-linejoin="round" /><circle cx="70.0" cy="296.5" r="2.8" fill="#2563eb" /><circle cx="500.0" cy="304.5" r="2.8" fill="#2563eb" /><circle cx="930.0" cy="311.9" r="2.8" fill="#2563eb" /><polyline points="70.0,101.0 500.0,100.1 930.0,78.1" fill="none" stroke="#f59e0b" stroke-width="2.5" stroke-linecap="round" stroke-linejoin="round" /><circle cx="70.0" cy="101.0" r="2.8" fill="#f59e0b" /><circle cx="500.0" cy="100.1" r="2.8" fill="#f59e0b" /><circle cx="930.0" cy="78.1" r="2.8" fill="#f59e0b" /><text x="70.0" y="360" text-anchor="middle" font-family="Arial, sans-serif" font-size="10" fill="#6b7280">#226 (2c6afc3)</text><text x="500.0" y="360" text-anchor="middle" font-family="Arial, sans-serif" font-size="10" fill="#6b7280">#227 (fb157bf)</text><text x="930.0" y="360" text-anchor="middle" font-family="Arial, sans-serif" font-size="10" fill="#6b7280">#228 (c60fbd2)</text><line x1="70" y1="388" x2="94" y2="388" stroke="#2563eb" stroke-width="3" /><text x="102" y="392" font-family="Arial, sans-serif" font-size="12" fill="#1f2937">Avg build time (ms)</text><line x1="280" y1="388" x2="304" y2="388" stroke="#f59e0b" stroke-width="3" /><text x="312" y="392" font-family="Arial, sans-serif" font-size="12" fill="#1f2937">Avg rasterizer time (ms)</text></svg>