<svg xmlns="http://www.w3.org/2000/svg" width="960" height="420" viewBox="0 0 960 420"><rect width="100%" height="100%" fill="#ffffff" /><text x="70" y="28" font-family="Arial, sans-serif" font-size="20" font-weight="600" fill="#111827">Kalender Performance Trend (Last 50 Runs)</text><line x1="70" y1="340.0" x2="930" y2="340.0" stroke="#e5e7eb" stroke-width="1" /><text x="60" y="344.0" text-anchor="end" font-family="Arial, sans-serif" font-size="11" fill="#6b7280">3.37ms</text><line x1="70" y1="282.0" x2="930" y2="282.0" stroke="#e5e7eb" stroke-width="1" /><text x="60" y="286.0" text-anchor="end" font-family="Arial, sans-serif" font-size="11" fill="#6b7280">4.27ms</text><line x1="70" y1="224.0" x2="930" y2="224.0" stroke="#e5e7eb" stroke-width="1" /><text x="60" y="228.0" text-anchor="end" font-family="Arial, sans-serif" font-size="11" fill="#6b7280">5.18ms</text><line x1="70" y1="166.0" x2="930" y2="166.0" stroke="#e5e7eb" stroke-width="1" /><text x="60" y="170.0" text-anchor="end" font-family="Arial, sans-serif" font-size="11" fill="#6b7280">6.09ms</text><line x1="70" y1="108.0" x2="930" y2="108.0" stroke="#e5e7eb" stroke-width="1" /><text x="60" y="112.0" text-anchor="end" font-family="Arial, sans-serif" font-size="11" fill="#6b7280">6.99ms</text><line x1="70" y1="50.0" x2="930" y2="50.0" stroke="#e5e7eb" stroke-width="1" /><text x="60" y="54.0" text-anchor="end" font-family="Arial, sans-serif" font-size="11" fill="#6b7280">7.90ms</text><line x1="70" y1="340" x2="930" y2="340" stroke="#9ca3af" stroke-width="1.5" /><line x1="70" y1="50" x2="70" y2="340" stroke="#9ca3af" stroke-width="1.5" /><polyline points="70.0,271.9 97.7,278.2 125.5,284.0 153.2,258.5 181.0,280.2 208.7,271.6 236.5,280.1 264.2,271.8 291.9,262.5 319.7,275.6 347.4,280.4 375.2,257.2 402.9,257.5 430.6,279.8 458.4,252.4 486.1,247.3 513.9,256.5 541.6,238.2 569.4,265.9 597.1,280.1 624.8,261.6 652.6,259.2 680.3,271.7 708.1,273.0 735.8,282.2 763.5,285.8 791.3,264.0 819.0,247.9 846.8,248.6 874.5,259.5 902.3,275.9 930.0,311.9" fill="none" stroke="#2563eb" stroke-width="2.5" stroke-linecap="round" stroke-linejoin="round" /><circle cx="70.0" cy="271.9" r="2.8" fill="#2563eb" /><circle cx="97.7" cy="278.2" r="2.8" fill="#2563eb" /><circle cx="125.5" cy="284.0" r="2.8" fill="#2563eb" /><circle cx="153.2" cy="258.5" r="2.8" fill="#2563eb" /><circle cx="181.0" cy="280.2" r="2.8" fill="#2563eb" /><circle cx="208.7" cy="271.6" r="2.8" fill="#2563eb" /><circle cx="236.5" cy="280.1" r="2.8" fill="#2563eb" /><circle cx="264.2" cy="271.8" r="2.8" fill="#2563eb" /><circle cx="291.9" cy="262.5" r="2.8" fill="#2563eb" /><circle cx="319.7" cy="275.6" r="2.8" fill="#2563eb" /><circle cx="347.4" cy="280.4" r="2.8" fill="#2563eb" /><circle cx="375.2" cy="257.2" r="2.8" fill="#2563eb" /><circle cx="402.9" cy="257.5" r="2.8" fill="#2563eb" /><circle cx="430.6" cy="279.8" r="2.8" fill="#2563eb" /><circle cx="458.4" cy="252.4" r="2.8" fill="#2563eb" /><circle cx="486.1" cy="247.3" r="2.8" fill="#2563eb" /><circle cx="513.9" cy="256.5" r="2.8" fill="#2563eb" /><circle cx="541.6" cy="238.2" r="2.8" fill="#2563eb" /><circle cx="569.4" cy="265.9" r="2.8" fill="#2563eb" /><circle cx="597.1" cy="280.1" r="2.8" fill="#2563eb" /><circle cx="624.8" cy="261.6" r="2.8" fill="#2563eb" /><circle cx="652.6" cy="259.2" r="2.8" fill="#2563eb" /><circle cx="680.3" cy="271.7" r="2.8" fill="#2563eb" /><circle cx="708.1" cy="273.0" r="2.8" fill="#2563eb" /><circle cx="735.8" cy="282.2" r="2.8" fill="#2563eb" /><circle cx="763.5" cy="285.8" r="2.8" fill="#2563eb" /><circle cx="791.3" cy="264.0" r="2.8" fill="#2563eb" /><circle cx="819.0" cy="247.9" r="2.8" fill="#2563eb" /><circle cx="846.8" cy="248.6" r="2.8" fill="#2563eb" /><circle cx="874.5" cy="259.5" r="2.8" fill="#2563eb" /><circle cx="902.3" cy="275.9" r="2.8" fill="#2563eb" /><circle cx="930.0" cy="311.9" r="2.8" fill="#2563eb" /><polyline points="70.0,118.3 97.7,117.6 125.5,100.3 153.2,92.4 181.0,118.5 208.7,110.4 236.5,115.9 264.2,102.9 291.9,96.4 319.7,116.3 347.4,125.5 375.2,110.8 402.9,100.1 430.6,78.1 458.4,98.9 486.1,86.0 513.9,109.3 541.6,85.7 569.4,115.6 597.1,109.1 624.8,124.5 652.6,104.7 680.3,125.8 708.1,114.5 735.8,98.9 763.5,88.6 791.3,118.3 819.0,104.2 846.8,89.0 874.5,104.1 902.3,118.1 930.0,217.8" fill="none" stroke="#f59e0b" stroke-width="2.5" stroke-linecap="round" stroke-linejoin="round" /><circle cx="70.0" cy="118.3" r="2.8" fill="#f59e0b" /><circle cx="97.7" cy="117.6" r="2.8" fill="#f59e0b" /><circle cx="125.5" cy="100.3" r="2.8" fill="#f59e0b" /><circle cx="153.2" cy="92.4" r="2.8" fill="#f59e0b" /><circle cx="181.0" cy="118.5" r="2.8" fill="#f59e0b" /><circle cx="208.7" cy="110.4" r="2.8" fill="#f59e0b" /><circle cx="236.5" cy="115.9" r="2.8" fill="#f59e0b" /><circle cx="264.2" cy="102.9" r="2.8" fill="#f59e0b" /><circle cx="291.9" cy="96.4" r="2.8" fill="#f59e0b" /><circle cx="319.7" cy="116.3" r="2.8" fill="#f59e0b" /><circle cx="347.4" cy="125.5" r="2.8" fill="#f59e0b" /><circle cx="375.2" cy="110.8" r="2.8" fill="#f59e0b" /><circle cx="402.9" cy="100.1" r="2.8" fill="#f59e0b" /><circle cx="430.6" cy="78.1" r="2.8" fill="#f59e0b" /><circle cx="458.4" cy="98.9" r="2.8" fill="#f59e0b" /><circle cx="486.1" cy="86.0" r="2.8" fill="#f59e0b" /><circle cx="513.9" cy="109.3" r="2.8" fill="#f59e0b" /><circle cx="541.6" cy="85.7" r="2.8" fill="#f59e0b" /><circle cx="569.4" cy="115.6" r="2.8" fill="#f59e0b" /><circle cx="597.1" cy="109.1" r="2.8" fill="#f59e0b" /><circle cx="624.8" cy="124.5" r="2.8" fill="#f59e0b" /><circle cx="652.6" cy="104.7" r="2.8" fill="#f59e0b" /><circle cx="680.3" cy="125.8" r="2.8" fill="#f59e0b" /><circle cx="708.1" cy="114.5" r="2.8" fill="#f59e0b" /><circle cx="735.8" cy="98.9" r="2.8" fill="#f59e0b" /><circle cx="763.5" cy="88.6" r="2.8" fill="#f59e0b" /><circle cx="791.3" cy="118.3" r="2.8" fill="#f59e0b" /><circle cx="819.0" cy="104.2" r="2.8" fill="#f59e0b" /><circle cx="846.8" cy="89.0" r="2.8" fill="#f59e0b" /><circle cx="874.5" cy="104.1" r="2.8" fill="#f59e0b" /><circle cx="902.3" cy="118.1" r="2.8" fill="#f59e0b" /><circle cx="930.0" cy="217.8" r="2.8" fill="#f59e0b" /><text x="70.0" y="360" text-anchor="middle" font-family="Arial, sans-serif" font-size="10" fill="#6b7280">#226 (2c6afc3)</text><text x="208.7" y="360" text-anchor="middle" font-family="Arial, sans-serif" font-size="10" fill="#6b7280">#231 (ee021f0)</text><text x="347.4" y="360" text-anchor="middle" font-family="Arial, sans-serif" font-size="10" fill="#6b7280">#236 (a0f1140)</text><text x="486.1" y="360" text-anchor="middle" font-family="Arial, sans-serif" font-size="10" fill="#6b7280">#241 (ad053ef)</text><text x="624.8" y="360" text-anchor="middle" font-family="Arial, sans-serif" font-size="10" fill="#6b7280">#246 (5ef06dc)</text><text x="763.5" y="360" text-anchor="middle" font-family="Arial, sans-serif" font-size="10" fill="#6b7280">#252 (6af7ca9)</text><text x="902.3" y="360" text-anchor="middle" font-family="Arial, sans-serif" font-size="10" fill="#6b7280">#257 (10f7922)</text><text x="930.0" y="360" text-anchor="middle" font-family="Arial, sans-serif" font-size="10" fill="#6b7280">#258 (a58f59e)</text><line x1="70" y1="388" x2="94" y2="388" stroke="#2563eb" stroke-width="3" /><text x="102" y="392" font-family="Arial, sans-serif" font-size="12" fill="#1f2937">Avg build time (ms)</text><line x1="280" y1="388" x2="304" y2="388" stroke="#f59e0b" stroke-width="3" /><text x="312" y="392" font-family="Arial, sans-serif" font-size="12" fill="#1f2937">Avg rasterizer time (ms)</text></svg>